<svg width="330" height="393" viewBox="0 0 330 393" fill="none" xmlns="http://www.w3.org/2000/svg">
<rect width="328" height="393" transform="translate(0.5)" fill="#252B42"/>
<path d="M164.5 83C150.417 83 139 94.3074 139 108.256C139 112.921 139.922 117.738 142.567 121.211L164.5 150L186.433 121.211C188.836 118.057 190 112.481 190 108.256C190 94.3074 178.583 83 164.5 83ZM164.5 97.6276C170.426 97.6276 175.231 102.387 175.231 108.256C175.231 114.125 170.426 118.884 164.5 118.884C158.574 118.884 153.769 114.125 153.769 108.256C153.769 102.387 158.574 97.6276 164.5 97.6276Z" fill="#23A6F0"/>
<g clip-path="url(#clip0_232_902)">
<path d="M61.5849 180.08C61.5849 179.473 61.4169 178.997 61.0809 178.652C60.7449 178.307 60.3296 178.134 59.8349 178.134C59.3402 178.134 58.9109 178.307 58.5469 178.652C58.1922 178.997 58.0149 179.469 58.0149 180.066C58.0149 180.663 58.1876 181.149 58.5329 181.522C58.8876 181.886 59.3169 182.068 59.8209 182.068C60.3249 182.068 60.7449 181.886 61.0809 181.522C61.4169 181.158 61.5849 180.677 61.5849 180.08ZM61.8789 182.726C61.2162 183.463 60.3902 183.832 59.4009 183.832C58.4209 183.832 57.5902 183.501 56.9089 182.838C56.2369 182.166 55.9009 181.275 55.9009 180.164C55.9009 179.044 56.2462 178.129 56.9369 177.42C57.6369 176.701 58.4349 176.342 59.3309 176.342C60.2269 176.342 60.9689 176.711 61.5569 177.448V176.454H63.6569V183.02C63.6569 183.692 63.5402 184.289 63.3069 184.812C63.0736 185.335 62.7609 185.745 62.3689 186.044C61.5942 186.66 60.6796 186.968 59.6249 186.968C59.0649 186.968 58.4909 186.875 57.9029 186.688C57.3242 186.511 56.8156 186.254 56.3769 185.918L57.1889 184.336C57.8796 184.859 58.6076 185.12 59.3729 185.12C60.1476 185.12 60.7589 184.929 61.2069 184.546C61.6549 184.163 61.8789 183.557 61.8789 182.726ZM72.3688 182.908C71.5194 183.711 70.5208 184.112 69.3728 184.112C68.2341 184.112 67.2914 183.762 66.5448 183.062C65.7981 182.353 65.4248 181.405 65.4248 180.22C65.4248 179.035 65.8028 178.092 66.5588 177.392C67.3241 176.692 68.2248 176.342 69.2608 176.342C70.2968 176.342 71.1741 176.655 71.8928 177.28C72.6208 177.905 72.9848 178.764 72.9848 179.856V180.976H67.4968C67.5621 181.387 67.7768 181.723 68.1408 181.984C68.5048 182.245 68.9154 182.376 69.3728 182.376C70.1101 182.376 70.7168 182.129 71.1928 181.634L72.3688 182.908ZM70.8568 179.478C70.8101 179.03 70.6421 178.685 70.3528 178.442C70.0634 178.199 69.7088 178.078 69.2888 178.078C68.8781 178.078 68.5001 178.204 68.1548 178.456C67.8094 178.708 67.6088 179.049 67.5528 179.478H70.8568ZM76.3791 180.234C76.3791 180.85 76.5517 181.354 76.8971 181.746C77.2517 182.129 77.6997 182.32 78.2411 182.32C78.7917 182.32 79.2397 182.129 79.5851 181.746C79.9397 181.354 80.1171 180.85 80.1171 180.234C80.1171 179.618 79.9397 179.114 79.5851 178.722C79.2397 178.33 78.7917 178.134 78.2411 178.134C77.6997 178.134 77.2517 178.33 76.8971 178.722C76.5517 179.114 76.3791 179.618 76.3791 180.234ZM82.2311 180.234C82.2311 181.326 81.8531 182.245 81.0971 182.992C80.3411 183.739 79.3891 184.112 78.2411 184.112C77.1024 184.112 76.1551 183.739 75.3991 182.992C74.6431 182.245 74.2651 181.326 74.2651 180.234C74.2651 179.142 74.6431 178.223 75.3991 177.476C76.1551 176.72 77.1024 176.342 78.2411 176.342C79.3891 176.342 80.3411 176.72 81.0971 177.476C81.8531 178.223 82.2311 179.142 82.2311 180.234ZM87.9529 178.316C87.3275 178.316 86.8609 178.54 86.5529 178.988C86.2449 179.427 86.0909 180.01 86.0909 180.738V184H83.9909V176.468H86.0909V177.462C86.3615 177.154 86.6975 176.893 87.0989 176.678C87.5095 176.463 87.9249 176.351 88.3449 176.342L88.3589 178.316H87.9529ZM95.2247 180.08C95.2247 179.473 95.0567 178.997 94.7207 178.652C94.3847 178.307 93.9694 178.134 93.4747 178.134C92.9801 178.134 92.5507 178.307 92.1867 178.652C91.8321 178.997 91.6547 179.469 91.6547 180.066C91.6547 180.663 91.8274 181.149 92.1727 181.522C92.5274 181.886 92.9567 182.068 93.4607 182.068C93.9647 182.068 94.3847 181.886 94.7207 181.522C95.0567 181.158 95.2247 180.677 95.2247 180.08ZM95.5187 182.726C94.8561 183.463 94.0301 183.832 93.0407 183.832C92.0607 183.832 91.2301 183.501 90.5487 182.838C89.8767 182.166 89.5407 181.275 89.5407 180.164C89.5407 179.044 89.8861 178.129 90.5767 177.42C91.2767 176.701 92.0747 176.342 92.9707 176.342C93.8667 176.342 94.6087 176.711 95.1967 177.448V176.454H97.2967V183.02C97.2967 183.692 97.1801 184.289 96.9467 184.812C96.7134 185.335 96.4007 185.745 96.0087 186.044C95.2341 186.66 94.3194 186.968 93.2647 186.968C92.7047 186.968 92.1307 186.875 91.5427 186.688C90.9641 186.511 90.4554 186.254 90.0167 185.918L90.8287 184.336C91.5194 184.859 92.2474 185.12 93.0127 185.12C93.7874 185.12 94.3987 184.929 94.8467 184.546C95.2947 184.163 95.5187 183.557 95.5187 182.726ZM101.585 184H99.4846V176.468H101.585V184ZM99.6526 175.516C99.4193 175.273 99.3026 174.979 99.3026 174.634C99.3026 174.289 99.4193 173.999 99.6526 173.766C99.8953 173.523 100.189 173.402 100.535 173.402C100.88 173.402 101.169 173.523 101.403 173.766C101.645 173.999 101.767 174.289 101.767 174.634C101.767 174.979 101.645 175.273 101.403 175.516C101.169 175.749 100.88 175.866 100.535 175.866C100.189 175.866 99.8953 175.749 99.6526 175.516ZM110.171 184H108.197V183.09C107.655 183.771 106.983 184.112 106.181 184.112C105.387 184.112 104.72 183.883 104.179 183.426C103.637 182.959 103.367 182.343 103.367 181.578C103.367 180.803 103.647 180.225 104.207 179.842C104.767 179.459 105.532 179.268 106.503 179.268H108.071V179.226C108.071 178.423 107.646 178.022 106.797 178.022C106.433 178.022 106.045 178.097 105.635 178.246C105.233 178.386 104.893 178.563 104.613 178.778L103.675 177.42C104.664 176.701 105.793 176.342 107.063 176.342C107.977 176.342 108.724 176.571 109.303 177.028C109.881 177.485 110.171 178.209 110.171 179.198V184ZM108.057 181.13V180.766H106.741C105.901 180.766 105.481 181.027 105.481 181.55C105.481 181.821 105.579 182.031 105.775 182.18C105.98 182.32 106.269 182.39 106.643 182.39C107.016 182.39 107.343 182.278 107.623 182.054C107.912 181.821 108.057 181.513 108.057 181.13ZM112.425 183.762C112.192 183.519 112.075 183.225 112.075 182.88C112.075 182.535 112.192 182.245 112.425 182.012C112.668 181.769 112.962 181.648 113.307 181.648C113.652 181.648 113.942 181.769 114.175 182.012C114.418 182.245 114.539 182.535 114.539 182.88C114.539 183.225 114.418 183.519 114.175 183.762C113.942 183.995 113.652 184.112 113.307 184.112C112.962 184.112 112.668 183.995 112.425 183.762ZM117.342 186.968C116.604 186.968 115.909 186.669 115.256 186.072L116.208 184.518C116.562 184.863 116.926 185.036 117.3 185.036C117.496 185.036 117.664 184.938 117.804 184.742C117.944 184.555 118.014 184.355 118.014 184.14C118.014 183.925 117.043 181.368 115.102 176.468H117.342L119.176 181.158L121.01 176.468H123.25L119.75 185.344C119.544 185.857 119.222 186.254 118.784 186.534C118.354 186.823 117.874 186.968 117.342 186.968ZM126 180.234C126 180.85 126.172 181.354 126.518 181.746C126.872 182.129 127.32 182.32 127.862 182.32C128.412 182.32 128.86 182.129 129.206 181.746C129.56 181.354 129.738 180.85 129.738 180.234C129.738 179.618 129.56 179.114 129.206 178.722C128.86 178.33 128.412 178.134 127.862 178.134C127.32 178.134 126.872 178.33 126.518 178.722C126.172 179.114 126 179.618 126 180.234ZM131.852 180.234C131.852 181.326 131.474 182.245 130.718 182.992C129.962 183.739 129.01 184.112 127.862 184.112C126.723 184.112 125.776 183.739 125.02 182.992C124.264 182.245 123.886 181.326 123.886 180.234C123.886 179.142 124.264 178.223 125.02 177.476C125.776 176.72 126.723 176.342 127.862 176.342C129.01 176.342 129.962 176.72 130.718 177.476C131.474 178.223 131.852 179.142 131.852 180.234ZM138.47 180.528V176.468H140.584V184H138.47V183.006C137.947 183.743 137.27 184.112 136.44 184.112C135.618 184.112 134.928 183.855 134.368 183.342C133.808 182.819 133.528 182.049 133.528 181.032V176.468H135.642V180.57C135.642 181.727 136.066 182.306 136.916 182.306C137.336 182.306 137.7 182.157 138.008 181.858C138.316 181.55 138.47 181.107 138.47 180.528ZM144.867 179.8V184H142.767V176.468H144.867V177.308C145.501 176.664 146.215 176.342 147.009 176.342C147.802 176.342 148.465 176.622 148.997 177.182C149.538 177.742 149.809 178.489 149.809 179.422V184H147.709V179.744C147.709 178.587 147.284 178.008 146.435 178.008C146.015 178.008 145.646 178.162 145.329 178.47C145.021 178.769 144.867 179.212 144.867 179.8ZM157.186 180.08C157.186 179.473 157.018 178.997 156.682 178.652C156.346 178.307 155.931 178.134 155.436 178.134C154.941 178.134 154.512 178.307 154.148 178.652C153.793 178.997 153.616 179.469 153.616 180.066C153.616 180.663 153.789 181.149 154.134 181.522C154.489 181.886 154.918 182.068 155.422 182.068C155.926 182.068 156.346 181.886 156.682 181.522C157.018 181.158 157.186 180.677 157.186 180.08ZM157.48 182.726C156.817 183.463 155.991 183.832 155.002 183.832C154.022 183.832 153.191 183.501 152.51 182.838C151.838 182.166 151.502 181.275 151.502 180.164C151.502 179.044 151.847 178.129 152.538 177.42C153.238 176.701 154.036 176.342 154.932 176.342C155.828 176.342 156.57 176.711 157.158 177.448V176.454H159.258V183.02C159.258 183.692 159.141 184.289 158.908 184.812C158.675 185.335 158.362 185.745 157.97 186.044C157.195 186.66 156.281 186.968 155.226 186.968C154.666 186.968 154.092 186.875 153.504 186.688C152.925 186.511 152.417 186.254 151.978 185.918L152.79 184.336C153.481 184.859 154.209 185.12 154.974 185.12C155.749 185.12 156.36 184.929 156.808 184.546C157.256 184.163 157.48 183.557 157.48 182.726ZM170.084 182.292C170.336 182.292 170.555 182.091 170.742 181.69C170.938 181.289 171.036 180.785 171.036 180.178C171.036 178.862 170.658 177.775 169.902 176.916C169.146 176.048 168.133 175.614 166.864 175.614C165.595 175.614 164.526 176.067 163.658 176.972C162.79 177.877 162.356 178.965 162.356 180.234C162.356 181.494 162.762 182.544 163.574 183.384C164.395 184.224 165.408 184.644 166.612 184.644C167.555 184.644 168.385 184.299 169.104 183.608L169.678 184.602C169.305 184.929 168.829 185.19 168.25 185.386C167.671 185.591 167.125 185.694 166.612 185.694C165.053 185.694 163.747 185.171 162.692 184.126C161.647 183.09 161.124 181.793 161.124 180.234C161.124 178.666 161.675 177.331 162.776 176.23C163.887 175.119 165.221 174.564 166.78 174.564C168.339 174.564 169.641 175.096 170.686 176.16C171.731 177.224 172.254 178.549 172.254 180.136C172.254 181.163 172.039 181.989 171.61 182.614C171.19 183.23 170.635 183.538 169.944 183.538C169.589 183.538 169.263 183.431 168.964 183.216C168.675 183.001 168.474 182.731 168.362 182.404C167.849 183.067 167.195 183.398 166.402 183.398C165.618 183.398 164.932 183.099 164.344 182.502C163.765 181.905 163.476 181.149 163.476 180.234C163.476 179.31 163.737 178.535 164.26 177.91C164.792 177.275 165.487 176.958 166.346 176.958C166.635 176.958 166.911 177.023 167.172 177.154C167.433 177.275 167.62 177.397 167.732 177.518L167.914 177.7V177.126H169.664V181.592C169.664 182.059 169.804 182.292 170.084 182.292ZM167.928 180.178C167.928 179.711 167.802 179.324 167.55 179.016C167.307 178.708 166.985 178.554 166.584 178.554C166.183 178.554 165.861 178.708 165.618 179.016C165.385 179.324 165.268 179.707 165.268 180.164C165.268 180.612 165.385 181.004 165.618 181.34C165.861 181.676 166.187 181.844 166.598 181.844C167.009 181.844 167.331 181.685 167.564 181.368C167.807 181.041 167.928 180.645 167.928 180.178ZM180.639 182.908C179.789 183.711 178.791 184.112 177.643 184.112C176.504 184.112 175.561 183.762 174.815 183.062C174.068 182.353 173.695 181.405 173.695 180.22C173.695 179.035 174.073 178.092 174.829 177.392C175.594 176.692 176.495 176.342 177.531 176.342C178.567 176.342 179.444 176.655 180.163 177.28C180.891 177.905 181.255 178.764 181.255 179.856V180.976H175.767C175.832 181.387 176.047 181.723 176.411 181.984C176.775 182.245 177.185 182.376 177.643 182.376C178.38 182.376 178.987 182.129 179.463 181.634L180.639 182.908ZM179.127 179.478C179.08 179.03 178.912 178.685 178.623 178.442C178.333 178.199 177.979 178.078 177.559 178.078C177.148 178.078 176.77 178.204 176.425 178.456C176.079 178.708 175.879 179.049 175.823 179.478H179.127ZM184.598 176.468L185.886 178.484L187.216 176.468H189.68L187.09 180.15L189.778 184H187.272L185.802 181.928L184.374 184H181.952L184.584 180.164L182.092 176.468H184.598ZM197.415 184H195.441V183.09C194.899 183.771 194.227 184.112 193.425 184.112C192.631 184.112 191.964 183.883 191.423 183.426C190.881 182.959 190.611 182.343 190.611 181.578C190.611 180.803 190.891 180.225 191.451 179.842C192.011 179.459 192.776 179.268 193.747 179.268H195.315V179.226C195.315 178.423 194.89 178.022 194.041 178.022C193.677 178.022 193.289 178.097 192.879 178.246C192.477 178.386 192.137 178.563 191.857 178.778L190.919 177.42C191.908 176.701 193.037 176.342 194.307 176.342C195.221 176.342 195.968 176.571 196.547 177.028C197.125 177.485 197.415 178.209 197.415 179.198V184ZM195.301 181.13V180.766H193.985C193.145 180.766 192.725 181.027 192.725 181.55C192.725 181.821 192.823 182.031 193.019 182.18C193.224 182.32 193.513 182.39 193.887 182.39C194.26 182.39 194.587 182.278 194.867 182.054C195.156 181.821 195.301 181.513 195.301 181.13ZM206.445 179.94V184H204.331V179.884C204.331 179.287 204.238 178.848 204.051 178.568C203.874 178.288 203.58 178.148 203.169 178.148C202.768 178.148 202.408 178.302 202.091 178.61C201.783 178.909 201.629 179.352 201.629 179.94V184H199.529V176.468H201.629V177.322C202.208 176.669 202.87 176.342 203.617 176.342C204.093 176.342 204.522 176.482 204.905 176.762C205.297 177.042 205.591 177.383 205.787 177.784C206.076 177.327 206.464 176.972 206.949 176.72C207.444 176.468 207.938 176.342 208.433 176.342C209.32 176.342 210.034 176.608 210.575 177.14C211.116 177.663 211.387 178.423 211.387 179.422V184H209.273V179.884C209.273 178.727 208.848 178.148 207.999 178.148C207.579 178.148 207.215 178.302 206.907 178.61C206.599 178.909 206.445 179.352 206.445 179.94ZM217.879 176.342C218.756 176.342 219.535 176.711 220.217 177.448C220.907 178.176 221.253 179.095 221.253 180.206C221.253 181.317 220.907 182.245 220.217 182.992C219.535 183.739 218.733 184.112 217.809 184.112C216.894 184.112 216.157 183.743 215.597 183.006V186.716H213.497V176.468H215.597V177.308C216.241 176.664 217.001 176.342 217.879 176.342ZM215.569 180.248C215.569 180.855 215.737 181.354 216.073 181.746C216.418 182.129 216.833 182.32 217.319 182.32C217.804 182.32 218.229 182.129 218.593 181.746C218.957 181.354 219.139 180.855 219.139 180.248C219.139 179.641 218.961 179.133 218.607 178.722C218.252 178.311 217.827 178.106 217.333 178.106C216.838 178.106 216.418 178.311 216.073 178.722C215.737 179.123 215.569 179.632 215.569 180.248ZM225.121 184H223.021V173.612H225.121V184ZM233.833 182.908C232.984 183.711 231.985 184.112 230.837 184.112C229.698 184.112 228.756 183.762 228.009 183.062C227.262 182.353 226.889 181.405 226.889 180.22C226.889 179.035 227.267 178.092 228.023 177.392C228.788 176.692 229.689 176.342 230.725 176.342C231.761 176.342 232.638 176.655 233.357 177.28C234.085 177.905 234.449 178.764 234.449 179.856V180.976H228.961C229.026 181.387 229.241 181.723 229.605 181.984C229.969 182.245 230.38 182.376 230.837 182.376C231.574 182.376 232.181 182.129 232.657 181.634L233.833 182.908ZM232.321 179.478C232.274 179.03 232.106 178.685 231.817 178.442C231.528 178.199 231.173 178.078 230.753 178.078C230.342 178.078 229.964 178.204 229.619 178.456C229.274 178.708 229.073 179.049 229.017 179.478H232.321ZM236.303 183.762C236.07 183.519 235.953 183.225 235.953 182.88C235.953 182.535 236.07 182.245 236.303 182.012C236.546 181.769 236.84 181.648 237.185 181.648C237.53 181.648 237.82 181.769 238.053 182.012C238.296 182.245 238.417 182.535 238.417 182.88C238.417 183.225 238.296 183.519 238.053 183.762C237.82 183.995 237.53 184.112 237.185 184.112C236.84 184.112 236.546 183.995 236.303 183.762ZM244.008 182.25C244.708 182.25 245.338 181.9 245.898 181.2L247.144 182.6C246.174 183.608 245.124 184.112 243.994 184.112C242.865 184.112 241.908 183.757 241.124 183.048C240.35 182.329 239.962 181.396 239.962 180.248C239.962 179.091 240.354 178.153 241.138 177.434C241.932 176.706 242.87 176.342 243.952 176.342C244.494 176.342 245.04 176.454 245.59 176.678C246.15 176.902 246.64 177.233 247.06 177.672L245.968 179.1C245.726 178.811 245.427 178.587 245.072 178.428C244.727 178.269 244.382 178.19 244.036 178.19C243.486 178.19 243.01 178.372 242.608 178.736C242.216 179.091 242.02 179.59 242.02 180.234C242.02 180.869 242.216 181.363 242.608 181.718C243.01 182.073 243.476 182.25 244.008 182.25ZM250.302 180.234C250.302 180.85 250.474 181.354 250.82 181.746C251.174 182.129 251.622 182.32 252.164 182.32C252.714 182.32 253.162 182.129 253.508 181.746C253.862 181.354 254.04 180.85 254.04 180.234C254.04 179.618 253.862 179.114 253.508 178.722C253.162 178.33 252.714 178.134 252.164 178.134C251.622 178.134 251.174 178.33 250.82 178.722C250.474 179.114 250.302 179.618 250.302 180.234ZM256.154 180.234C256.154 181.326 255.776 182.245 255.02 182.992C254.264 183.739 253.312 184.112 252.164 184.112C251.025 184.112 250.078 183.739 249.322 182.992C248.566 182.245 248.188 181.326 248.188 180.234C248.188 179.142 248.566 178.223 249.322 177.476C250.078 176.72 251.025 176.342 252.164 176.342C253.312 176.342 254.264 176.72 255.02 177.476C255.776 178.223 256.154 179.142 256.154 180.234ZM264.83 179.94V184H262.716V179.884C262.716 179.287 262.622 178.848 262.436 178.568C262.258 178.288 261.964 178.148 261.554 178.148C261.152 178.148 260.793 178.302 260.476 178.61C260.168 178.909 260.014 179.352 260.014 179.94V184H257.914V176.468H260.014V177.322C260.592 176.669 261.255 176.342 262.002 176.342C262.478 176.342 262.907 176.482 263.29 176.762C263.682 177.042 263.976 177.383 264.172 177.784C264.461 177.327 264.848 176.972 265.334 176.72C265.828 176.468 266.323 176.342 266.818 176.342C267.704 176.342 268.418 176.608 268.96 177.14C269.501 177.663 269.772 178.423 269.772 179.422V184H267.658V179.884C267.658 178.727 267.233 178.148 266.384 178.148C265.964 178.148 265.6 178.302 265.292 178.61C264.984 178.909 264.83 179.352 264.83 179.94Z" fill="white"/>
<path d="M104.276 204.08C104.276 203.473 104.108 202.997 103.772 202.652C103.436 202.307 103.021 202.134 102.526 202.134C102.031 202.134 101.602 202.307 101.238 202.652C100.883 202.997 100.706 203.469 100.706 204.066C100.706 204.663 100.879 205.149 101.224 205.522C101.579 205.886 102.008 206.068 102.512 206.068C103.016 206.068 103.436 205.886 103.772 205.522C104.108 205.158 104.276 204.677 104.276 204.08ZM104.57 206.726C103.907 207.463 103.081 207.832 102.092 207.832C101.112 207.832 100.281 207.501 99.5999 206.838C98.9279 206.166 98.5919 205.275 98.5919 204.164C98.5919 203.044 98.9372 202.129 99.6279 201.42C100.328 200.701 101.126 200.342 102.022 200.342C102.918 200.342 103.66 200.711 104.248 201.448V200.454H106.348V207.02C106.348 207.692 106.231 208.289 105.998 208.812C105.765 209.335 105.452 209.745 105.06 210.044C104.285 210.66 103.371 210.968 102.316 210.968C101.756 210.968 101.182 210.875 100.594 210.688C100.015 210.511 99.5066 210.254 99.0679 209.918L99.8799 208.336C100.571 208.859 101.299 209.12 102.064 209.12C102.839 209.12 103.45 208.929 103.898 208.546C104.346 208.163 104.57 207.557 104.57 206.726ZM115.06 206.908C114.21 207.711 113.212 208.112 112.064 208.112C110.925 208.112 109.982 207.762 109.236 207.062C108.489 206.353 108.116 205.405 108.116 204.22C108.116 203.035 108.494 202.092 109.25 201.392C110.015 200.692 110.916 200.342 111.952 200.342C112.988 200.342 113.865 200.655 114.584 201.28C115.312 201.905 115.676 202.764 115.676 203.856V204.976H110.188C110.253 205.387 110.468 205.723 110.832 205.984C111.196 206.245 111.606 206.376 112.064 206.376C112.801 206.376 113.408 206.129 113.884 205.634L115.06 206.908ZM113.548 203.478C113.501 203.03 113.333 202.685 113.044 202.442C112.754 202.199 112.4 202.078 111.98 202.078C111.569 202.078 111.191 202.204 110.846 202.456C110.5 202.708 110.3 203.049 110.244 203.478H113.548ZM119.07 204.234C119.07 204.85 119.243 205.354 119.588 205.746C119.943 206.129 120.391 206.32 120.932 206.32C121.483 206.32 121.931 206.129 122.276 205.746C122.631 205.354 122.808 204.85 122.808 204.234C122.808 203.618 122.631 203.114 122.276 202.722C121.931 202.33 121.483 202.134 120.932 202.134C120.391 202.134 119.943 202.33 119.588 202.722C119.243 203.114 119.07 203.618 119.07 204.234ZM124.922 204.234C124.922 205.326 124.544 206.245 123.788 206.992C123.032 207.739 122.08 208.112 120.932 208.112C119.793 208.112 118.846 207.739 118.09 206.992C117.334 206.245 116.956 205.326 116.956 204.234C116.956 203.142 117.334 202.223 118.09 201.476C118.846 200.72 119.793 200.342 120.932 200.342C122.08 200.342 123.032 200.72 123.788 201.476C124.544 202.223 124.922 203.142 124.922 204.234ZM130.644 202.316C130.019 202.316 129.552 202.54 129.244 202.988C128.936 203.427 128.782 204.01 128.782 204.738V208H126.682V200.468H128.782V201.462C129.053 201.154 129.389 200.893 129.79 200.678C130.201 200.463 130.616 200.351 131.036 200.342L131.05 202.316H130.644ZM137.916 204.08C137.916 203.473 137.748 202.997 137.412 202.652C137.076 202.307 136.66 202.134 136.166 202.134C135.671 202.134 135.242 202.307 134.878 202.652C134.523 202.997 134.346 203.469 134.346 204.066C134.346 204.663 134.518 205.149 134.864 205.522C135.218 205.886 135.648 206.068 136.152 206.068C136.656 206.068 137.076 205.886 137.412 205.522C137.748 205.158 137.916 204.677 137.916 204.08ZM138.21 206.726C137.547 207.463 136.721 207.832 135.732 207.832C134.752 207.832 133.921 207.501 133.24 206.838C132.568 206.166 132.232 205.275 132.232 204.164C132.232 203.044 132.577 202.129 133.268 201.42C133.968 200.701 134.766 200.342 135.662 200.342C136.558 200.342 137.3 200.711 137.888 201.448V200.454H139.988V207.02C139.988 207.692 139.871 208.289 139.638 208.812C139.404 209.335 139.092 209.745 138.7 210.044C137.925 210.66 137.01 210.968 135.956 210.968C135.396 210.968 134.822 210.875 134.234 210.688C133.655 210.511 133.146 210.254 132.708 209.918L133.52 208.336C134.21 208.859 134.938 209.12 135.704 209.12C136.478 209.12 137.09 208.929 137.538 208.546C137.986 208.163 138.21 207.557 138.21 206.726ZM144.276 208H142.176V200.468H144.276V208ZM142.344 199.516C142.11 199.273 141.994 198.979 141.994 198.634C141.994 198.289 142.11 197.999 142.344 197.766C142.586 197.523 142.88 197.402 143.226 197.402C143.571 197.402 143.86 197.523 144.094 197.766C144.336 197.999 144.458 198.289 144.458 198.634C144.458 198.979 144.336 199.273 144.094 199.516C143.86 199.749 143.571 199.866 143.226 199.866C142.88 199.866 142.586 199.749 142.344 199.516ZM152.862 208H150.888V207.09C150.346 207.771 149.674 208.112 148.872 208.112C148.078 208.112 147.411 207.883 146.87 207.426C146.328 206.959 146.058 206.343 146.058 205.578C146.058 204.803 146.338 204.225 146.898 203.842C147.458 203.459 148.223 203.268 149.194 203.268H150.762V203.226C150.762 202.423 150.337 202.022 149.488 202.022C149.124 202.022 148.736 202.097 148.326 202.246C147.924 202.386 147.584 202.563 147.304 202.778L146.366 201.42C147.355 200.701 148.484 200.342 149.754 200.342C150.668 200.342 151.415 200.571 151.994 201.028C152.572 201.485 152.862 202.209 152.862 203.198V208ZM150.748 205.13V204.766H149.432C148.592 204.766 148.172 205.027 148.172 205.55C148.172 205.821 148.27 206.031 148.466 206.18C148.671 206.32 148.96 206.39 149.334 206.39C149.707 206.39 150.034 206.278 150.314 206.054C150.603 205.821 150.748 205.513 150.748 205.13ZM155.116 207.762C154.883 207.519 154.766 207.225 154.766 206.88C154.766 206.535 154.883 206.245 155.116 206.012C155.359 205.769 155.653 205.648 155.998 205.648C156.343 205.648 156.633 205.769 156.866 206.012C157.109 206.245 157.23 206.535 157.23 206.88C157.23 207.225 157.109 207.519 156.866 207.762C156.633 207.995 156.343 208.112 155.998 208.112C155.653 208.112 155.359 207.995 155.116 207.762ZM160.033 210.968C159.295 210.968 158.6 210.669 157.947 210.072L158.899 208.518C159.253 208.863 159.617 209.036 159.991 209.036C160.187 209.036 160.355 208.938 160.495 208.742C160.635 208.555 160.705 208.355 160.705 208.14C160.705 207.925 159.734 205.368 157.793 200.468H160.033L161.867 205.158L163.701 200.468H165.941L162.441 209.344C162.235 209.857 161.913 210.254 161.475 210.534C161.045 210.823 160.565 210.968 160.033 210.968ZM168.691 204.234C168.691 204.85 168.863 205.354 169.209 205.746C169.563 206.129 170.011 206.32 170.553 206.32C171.103 206.32 171.551 206.129 171.897 205.746C172.251 205.354 172.429 204.85 172.429 204.234C172.429 203.618 172.251 203.114 171.897 202.722C171.551 202.33 171.103 202.134 170.553 202.134C170.011 202.134 169.563 202.33 169.209 202.722C168.863 203.114 168.691 203.618 168.691 204.234ZM174.543 204.234C174.543 205.326 174.165 206.245 173.409 206.992C172.653 207.739 171.701 208.112 170.553 208.112C169.414 208.112 168.467 207.739 167.711 206.992C166.955 206.245 166.577 205.326 166.577 204.234C166.577 203.142 166.955 202.223 167.711 201.476C168.467 200.72 169.414 200.342 170.553 200.342C171.701 200.342 172.653 200.72 173.409 201.476C174.165 202.223 174.543 203.142 174.543 204.234ZM181.161 204.528V200.468H183.275V208H181.161V207.006C180.638 207.743 179.961 208.112 179.131 208.112C178.309 208.112 177.619 207.855 177.059 207.342C176.499 206.819 176.219 206.049 176.219 205.032V200.468H178.333V204.57C178.333 205.727 178.757 206.306 179.607 206.306C180.027 206.306 180.391 206.157 180.699 205.858C181.007 205.55 181.161 205.107 181.161 204.528ZM187.558 203.8V208H185.458V200.468H187.558V201.308C188.192 200.664 188.906 200.342 189.7 200.342C190.493 200.342 191.156 200.622 191.688 201.182C192.229 201.742 192.5 202.489 192.5 203.422V208H190.4V203.744C190.4 202.587 189.975 202.008 189.126 202.008C188.706 202.008 188.337 202.162 188.02 202.47C187.712 202.769 187.558 203.212 187.558 203.8ZM199.877 204.08C199.877 203.473 199.709 202.997 199.373 202.652C199.037 202.307 198.622 202.134 198.127 202.134C197.632 202.134 197.203 202.307 196.839 202.652C196.484 202.997 196.307 203.469 196.307 204.066C196.307 204.663 196.48 205.149 196.825 205.522C197.18 205.886 197.609 206.068 198.113 206.068C198.617 206.068 199.037 205.886 199.373 205.522C199.709 205.158 199.877 204.677 199.877 204.08ZM200.171 206.726C199.508 207.463 198.682 207.832 197.693 207.832C196.713 207.832 195.882 207.501 195.201 206.838C194.529 206.166 194.193 205.275 194.193 204.164C194.193 203.044 194.538 202.129 195.229 201.42C195.929 200.701 196.727 200.342 197.623 200.342C198.519 200.342 199.261 200.711 199.849 201.448V200.454H201.949V207.02C201.949 207.692 201.832 208.289 201.599 208.812C201.366 209.335 201.053 209.745 200.661 210.044C199.886 210.66 198.972 210.968 197.917 210.968C197.357 210.968 196.783 210.875 196.195 210.688C195.616 210.511 195.108 210.254 194.669 209.918L195.481 208.336C196.172 208.859 196.9 209.12 197.665 209.12C198.44 209.12 199.051 208.929 199.499 208.546C199.947 208.163 200.171 207.557 200.171 206.726ZM212.775 206.292C213.027 206.292 213.246 206.091 213.433 205.69C213.629 205.289 213.727 204.785 213.727 204.178C213.727 202.862 213.349 201.775 212.593 200.916C211.837 200.048 210.824 199.614 209.555 199.614C208.286 199.614 207.217 200.067 206.349 200.972C205.481 201.877 205.047 202.965 205.047 204.234C205.047 205.494 205.453 206.544 206.265 207.384C207.086 208.224 208.099 208.644 209.303 208.644C210.246 208.644 211.076 208.299 211.795 207.608L212.369 208.602C211.996 208.929 211.52 209.19 210.941 209.386C210.362 209.591 209.816 209.694 209.303 209.694C207.744 209.694 206.438 209.171 205.383 208.126C204.338 207.09 203.815 205.793 203.815 204.234C203.815 202.666 204.366 201.331 205.467 200.23C206.578 199.119 207.912 198.564 209.471 198.564C211.03 198.564 212.332 199.096 213.377 200.16C214.422 201.224 214.945 202.549 214.945 204.136C214.945 205.163 214.73 205.989 214.301 206.614C213.881 207.23 213.326 207.538 212.635 207.538C212.28 207.538 211.954 207.431 211.655 207.216C211.366 207.001 211.165 206.731 211.053 206.404C210.54 207.067 209.886 207.398 209.093 207.398C208.309 207.398 207.623 207.099 207.035 206.502C206.456 205.905 206.167 205.149 206.167 204.234C206.167 203.31 206.428 202.535 206.951 201.91C207.483 201.275 208.178 200.958 209.037 200.958C209.326 200.958 209.602 201.023 209.863 201.154C210.124 201.275 210.311 201.397 210.423 201.518L210.605 201.7V201.126H212.355V205.592C212.355 206.059 212.495 206.292 212.775 206.292ZM210.619 204.178C210.619 203.711 210.493 203.324 210.241 203.016C209.998 202.708 209.676 202.554 209.275 202.554C208.874 202.554 208.552 202.708 208.309 203.016C208.076 203.324 207.959 203.707 207.959 204.164C207.959 204.612 208.076 205.004 208.309 205.34C208.552 205.676 208.878 205.844 209.289 205.844C209.7 205.844 210.022 205.685 210.255 205.368C210.498 205.041 210.619 204.645 210.619 204.178ZM221.188 200.342C222.065 200.342 222.844 200.711 223.526 201.448C224.216 202.176 224.562 203.095 224.562 204.206C224.562 205.317 224.216 206.245 223.526 206.992C222.844 207.739 222.042 208.112 221.118 208.112C220.203 208.112 219.466 207.743 218.906 207.006V210.716H216.806V200.468H218.906V201.308C219.55 200.664 220.31 200.342 221.188 200.342ZM218.878 204.248C218.878 204.855 219.046 205.354 219.382 205.746C219.727 206.129 220.142 206.32 220.628 206.32C221.113 206.32 221.538 206.129 221.902 205.746C222.266 205.354 222.448 204.855 222.448 204.248C222.448 203.641 222.27 203.133 221.916 202.722C221.561 202.311 221.136 202.106 220.642 202.106C220.147 202.106 219.727 202.311 219.382 202.722C219.046 203.123 218.878 203.632 218.878 204.248ZM228.43 208H226.33V197.612H228.43V208ZM237.142 206.908C236.292 207.711 235.294 208.112 234.146 208.112C233.007 208.112 232.064 207.762 231.318 207.062C230.571 206.353 230.198 205.405 230.198 204.22C230.198 203.035 230.576 202.092 231.332 201.392C232.097 200.692 232.998 200.342 234.034 200.342C235.07 200.342 235.947 200.655 236.666 201.28C237.394 201.905 237.758 202.764 237.758 203.856V204.976H232.27C232.335 205.387 232.55 205.723 232.914 205.984C233.278 206.245 233.688 206.376 234.146 206.376C234.883 206.376 235.49 206.129 235.966 205.634L237.142 206.908ZM235.63 203.478C235.583 203.03 235.415 202.685 235.126 202.442C234.836 202.199 234.482 202.078 234.062 202.078C233.651 202.078 233.273 202.204 232.928 202.456C232.582 202.708 232.382 203.049 232.326 203.478H235.63ZM239.612 207.762C239.379 207.519 239.262 207.225 239.262 206.88C239.262 206.535 239.379 206.245 239.612 206.012C239.855 205.769 240.149 205.648 240.494 205.648C240.839 205.648 241.129 205.769 241.362 206.012C241.605 206.245 241.726 206.535 241.726 206.88C241.726 207.225 241.605 207.519 241.362 207.762C241.129 207.995 240.839 208.112 240.494 208.112C240.149 208.112 239.855 207.995 239.612 207.762ZM247.317 206.25C248.017 206.25 248.647 205.9 249.207 205.2L250.453 206.6C249.483 207.608 248.433 208.112 247.303 208.112C246.174 208.112 245.217 207.757 244.433 207.048C243.659 206.329 243.271 205.396 243.271 204.248C243.271 203.091 243.663 202.153 244.447 201.434C245.241 200.706 246.179 200.342 247.261 200.342C247.803 200.342 248.349 200.454 248.899 200.678C249.459 200.902 249.949 201.233 250.369 201.672L249.277 203.1C249.035 202.811 248.736 202.587 248.381 202.428C248.036 202.269 247.691 202.19 247.345 202.19C246.795 202.19 246.319 202.372 245.917 202.736C245.525 203.091 245.329 203.59 245.329 204.234C245.329 204.869 245.525 205.363 245.917 205.718C246.319 206.073 246.785 206.25 247.317 206.25ZM253.611 204.234C253.611 204.85 253.783 205.354 254.129 205.746C254.483 206.129 254.931 206.32 255.473 206.32C256.023 206.32 256.471 206.129 256.817 205.746C257.171 205.354 257.349 204.85 257.349 204.234C257.349 203.618 257.171 203.114 256.817 202.722C256.471 202.33 256.023 202.134 255.473 202.134C254.931 202.134 254.483 202.33 254.129 202.722C253.783 203.114 253.611 203.618 253.611 204.234ZM259.463 204.234C259.463 205.326 259.085 206.245 258.329 206.992C257.573 207.739 256.621 208.112 255.473 208.112C254.334 208.112 253.387 207.739 252.631 206.992C251.875 206.245 251.497 205.326 251.497 204.234C251.497 203.142 251.875 202.223 252.631 201.476C253.387 200.72 254.334 200.342 255.473 200.342C256.621 200.342 257.573 200.72 258.329 201.476C259.085 202.223 259.463 203.142 259.463 204.234ZM268.139 203.94V208H266.025V203.884C266.025 203.287 265.931 202.848 265.745 202.568C265.567 202.288 265.273 202.148 264.863 202.148C264.461 202.148 264.102 202.302 263.785 202.61C263.477 202.909 263.323 203.352 263.323 203.94V208H261.223V200.468H263.323V201.322C263.901 200.669 264.564 200.342 265.311 200.342C265.787 200.342 266.216 200.482 266.599 200.762C266.991 201.042 267.285 201.383 267.481 201.784C267.77 201.327 268.157 200.972 268.643 200.72C269.137 200.468 269.632 200.342 270.127 200.342C271.013 200.342 271.727 200.608 272.269 201.14C272.81 201.663 273.081 202.423 273.081 203.422V208H270.967V203.884C270.967 202.727 270.542 202.148 269.693 202.148C269.273 202.148 268.909 202.302 268.601 202.61C268.293 202.909 268.139 203.352 268.139 203.94Z" fill="white"/>
</g>
<path d="M123.281 242.304H125.793V246.272C124.683 247.509 123.147 248.128 121.185 248.128C119.542 248.128 118.161 247.584 117.041 246.496C115.931 245.408 115.377 244.037 115.377 242.384C115.377 240.72 115.942 239.333 117.073 238.224C118.214 237.115 119.585 236.56 121.185 236.56C122.795 236.56 124.193 237.088 125.377 238.144L124.081 240.016C123.579 239.579 123.115 239.28 122.689 239.12C122.273 238.949 121.819 238.864 121.329 238.864C120.379 238.864 119.579 239.189 118.929 239.84C118.278 240.48 117.953 241.328 117.953 242.384C117.953 243.44 118.262 244.288 118.881 244.928C119.51 245.557 120.257 245.872 121.121 245.872C121.985 245.872 122.705 245.707 123.281 245.376V242.304ZM135.333 246.752C134.362 247.669 133.221 248.128 131.909 248.128C130.607 248.128 129.53 247.728 128.677 246.928C127.823 246.117 127.397 245.035 127.397 243.68C127.397 242.325 127.829 241.248 128.693 240.448C129.567 239.648 130.597 239.248 131.781 239.248C132.965 239.248 133.967 239.605 134.789 240.32C135.621 241.035 136.037 242.016 136.037 243.264V244.544H129.765C129.839 245.013 130.085 245.397 130.501 245.696C130.917 245.995 131.386 246.144 131.909 246.144C132.751 246.144 133.445 245.861 133.989 245.296L135.333 246.752ZM133.605 242.832C133.551 242.32 133.359 241.925 133.029 241.648C132.698 241.371 132.293 241.232 131.813 241.232C131.343 241.232 130.911 241.376 130.517 241.664C130.122 241.952 129.893 242.341 129.829 242.832H133.605ZM140.638 241.12V244.976C140.638 245.307 140.723 245.568 140.894 245.76C141.064 245.941 141.267 246.032 141.502 246.032C141.95 246.032 142.328 245.829 142.638 245.424L143.534 247.104C142.787 247.787 141.998 248.128 141.166 248.128C140.344 248.128 139.646 247.856 139.07 247.312C138.504 246.768 138.222 246.027 138.222 245.088V241.12H137.214V239.392H138.222V236.816H140.638V239.392H142.718V241.12H140.638ZM153.079 238.752C152.663 238.752 152.332 238.853 152.087 239.056C151.852 239.248 151.735 239.509 151.735 239.84C151.735 240.16 151.879 240.416 152.167 240.608C152.466 240.8 153.143 241.029 154.199 241.296C155.266 241.552 156.092 241.941 156.679 242.464C157.266 242.987 157.559 243.749 157.559 244.752C157.559 245.755 157.18 246.571 156.423 247.2C155.676 247.819 154.69 248.128 153.463 248.128C151.692 248.128 150.098 247.472 148.679 246.16L150.167 244.336C151.372 245.392 152.487 245.92 153.511 245.92C153.97 245.92 154.327 245.824 154.583 245.632C154.85 245.429 154.983 245.163 154.983 244.832C154.983 244.491 154.844 244.224 154.567 244.032C154.29 243.829 153.74 243.627 152.919 243.424C151.618 243.115 150.663 242.715 150.055 242.224C149.458 241.723 149.159 240.944 149.159 239.888C149.159 238.821 149.538 238 150.295 237.424C151.063 236.848 152.018 236.56 153.159 236.56C153.906 236.56 154.652 236.688 155.399 236.944C156.146 237.2 156.796 237.563 157.351 238.032L156.087 239.856C155.116 239.12 154.114 238.752 153.079 238.752ZM164.985 244.032V239.392H167.401V248H164.985V246.864C164.388 247.707 163.614 248.128 162.665 248.128C161.726 248.128 160.937 247.835 160.297 247.248C159.657 246.651 159.337 245.771 159.337 244.608V239.392H161.753V244.08C161.753 245.403 162.238 246.064 163.209 246.064C163.689 246.064 164.105 245.893 164.457 245.552C164.809 245.2 164.985 244.693 164.985 244.032ZM174.775 239.248C175.778 239.248 176.669 239.669 177.447 240.512C178.237 241.344 178.631 242.395 178.631 243.664C178.631 244.933 178.237 245.995 177.447 246.848C176.669 247.701 175.751 248.128 174.695 248.128C173.65 248.128 172.807 247.707 172.167 246.864V251.104H169.767V239.392H172.167V240.352C172.903 239.616 173.773 239.248 174.775 239.248ZM172.135 243.712C172.135 244.405 172.327 244.976 172.711 245.424C173.106 245.861 173.581 246.08 174.135 246.08C174.69 246.08 175.175 245.861 175.591 245.424C176.007 244.976 176.215 244.405 176.215 243.712C176.215 243.019 176.013 242.437 175.607 241.968C175.202 241.499 174.717 241.264 174.151 241.264C173.586 241.264 173.106 241.499 172.711 241.968C172.327 242.427 172.135 243.008 172.135 243.712ZM185.531 239.248C186.534 239.248 187.425 239.669 188.203 240.512C188.993 241.344 189.387 242.395 189.387 243.664C189.387 244.933 188.993 245.995 188.203 246.848C187.425 247.701 186.507 248.128 185.451 248.128C184.406 248.128 183.563 247.707 182.923 246.864V251.104H180.523V239.392H182.923V240.352C183.659 239.616 184.529 239.248 185.531 239.248ZM182.891 243.712C182.891 244.405 183.083 244.976 183.467 245.424C183.862 245.861 184.337 246.08 184.891 246.08C185.446 246.08 185.931 245.861 186.347 245.424C186.763 244.976 186.971 244.405 186.971 243.712C186.971 243.019 186.769 242.437 186.363 241.968C185.958 241.499 185.473 241.264 184.907 241.264C184.342 241.264 183.862 241.499 183.467 241.968C183.083 242.427 182.891 243.008 182.891 243.712ZM193.2 243.696C193.2 244.4 193.397 244.976 193.792 245.424C194.197 245.861 194.709 246.08 195.328 246.08C195.957 246.08 196.469 245.861 196.864 245.424C197.269 244.976 197.472 244.4 197.472 243.696C197.472 242.992 197.269 242.416 196.864 241.968C196.469 241.52 195.957 241.296 195.328 241.296C194.709 241.296 194.197 241.52 193.792 241.968C193.397 242.416 193.2 242.992 193.2 243.696ZM199.888 243.696C199.888 244.944 199.456 245.995 198.592 246.848C197.728 247.701 196.64 248.128 195.328 248.128C194.026 248.128 192.944 247.701 192.08 246.848C191.216 245.995 190.784 244.944 190.784 243.696C190.784 242.448 191.216 241.397 192.08 240.544C192.944 239.68 194.026 239.248 195.328 239.248C196.64 239.248 197.728 239.68 198.592 240.544C199.456 241.397 199.888 242.448 199.888 243.696ZM206.298 241.504C205.584 241.504 205.05 241.76 204.698 242.272C204.346 242.773 204.17 243.44 204.17 244.272V248H201.77V239.392H204.17V240.528C204.48 240.176 204.864 239.877 205.322 239.632C205.792 239.387 206.266 239.259 206.746 239.248L206.762 241.504H206.298ZM211.312 241.12V244.976C211.312 245.307 211.398 245.568 211.569 245.76C211.739 245.941 211.942 246.032 212.177 246.032C212.625 246.032 213.003 245.829 213.313 245.424L214.209 247.104C213.462 247.787 212.673 248.128 211.841 248.128C211.019 248.128 210.321 247.856 209.745 247.312C209.179 246.768 208.897 246.027 208.897 245.088V241.12H207.889V239.392H208.897V236.816H211.312V239.392H213.393V241.12H211.312Z" fill="white"/>
<rect x="86.5" y="269.5" width="156" height="43" rx="4.5" stroke="#23A6F0"/>
<path d="M110.57 287.908C110.206 287.908 109.916 287.997 109.702 288.174C109.496 288.342 109.394 288.571 109.394 288.86C109.394 289.14 109.52 289.364 109.772 289.532C110.033 289.7 110.626 289.901 111.55 290.134C112.483 290.358 113.206 290.699 113.72 291.156C114.233 291.613 114.49 292.281 114.49 293.158C114.49 294.035 114.158 294.749 113.496 295.3C112.842 295.841 111.979 296.112 110.906 296.112C109.356 296.112 107.961 295.538 106.72 294.39L108.022 292.794C109.076 293.718 110.052 294.18 110.948 294.18C111.349 294.18 111.662 294.096 111.886 293.928C112.119 293.751 112.236 293.517 112.236 293.228C112.236 292.929 112.114 292.696 111.872 292.528C111.629 292.351 111.148 292.173 110.43 291.996C109.291 291.725 108.456 291.375 107.924 290.946C107.401 290.507 107.14 289.826 107.14 288.902C107.14 287.969 107.471 287.25 108.134 286.746C108.806 286.242 109.641 285.99 110.64 285.99C111.293 285.99 111.946 286.102 112.6 286.326C113.253 286.55 113.822 286.867 114.308 287.278L113.202 288.874C112.352 288.23 111.475 287.908 110.57 287.908ZM121.1 292.528V288.468H123.214V296H121.1V295.006C120.577 295.743 119.9 296.112 119.07 296.112C118.248 296.112 117.558 295.855 116.998 295.342C116.438 294.819 116.158 294.049 116.158 293.032V288.468H118.272V292.57C118.272 293.727 118.696 294.306 119.546 294.306C119.966 294.306 120.33 294.157 120.638 293.858C120.946 293.55 121.1 293.107 121.1 292.528ZM129.737 288.342C130.651 288.342 131.449 288.701 132.131 289.42C132.812 290.129 133.153 291.044 133.153 292.164C133.153 293.284 132.803 294.222 132.103 294.978C131.403 295.734 130.605 296.112 129.709 296.112C128.822 296.112 128.085 295.743 127.497 295.006V296H125.397V285.612H127.497V289.308C128.075 288.664 128.822 288.342 129.737 288.342ZM127.469 292.248C127.469 292.855 127.637 293.354 127.973 293.746C128.318 294.129 128.733 294.32 129.219 294.32C129.704 294.32 130.129 294.129 130.493 293.746C130.857 293.354 131.039 292.855 131.039 292.248C131.039 291.641 130.861 291.133 130.507 290.722C130.152 290.311 129.727 290.106 129.233 290.106C128.738 290.106 128.318 290.311 127.973 290.722C127.637 291.123 127.469 291.632 127.469 292.248ZM141.837 291.94V296H139.723V291.884C139.723 291.287 139.63 290.848 139.443 290.568C139.266 290.288 138.972 290.148 138.561 290.148C138.16 290.148 137.8 290.302 137.483 290.61C137.175 290.909 137.021 291.352 137.021 291.94V296H134.921V288.468H137.021V289.322C137.6 288.669 138.262 288.342 139.009 288.342C139.485 288.342 139.914 288.482 140.297 288.762C140.689 289.042 140.983 289.383 141.179 289.784C141.468 289.327 141.856 288.972 142.341 288.72C142.836 288.468 143.33 288.342 143.825 288.342C144.712 288.342 145.426 288.608 145.967 289.14C146.508 289.663 146.779 290.423 146.779 291.422V296H144.665V291.884C144.665 290.727 144.24 290.148 143.391 290.148C142.971 290.148 142.607 290.302 142.299 290.61C141.991 290.909 141.837 291.352 141.837 291.94ZM150.989 296H148.889V288.468H150.989V296ZM149.057 287.516C148.823 287.273 148.707 286.979 148.707 286.634C148.707 286.289 148.823 285.999 149.057 285.766C149.299 285.523 149.593 285.402 149.939 285.402C150.284 285.402 150.573 285.523 150.807 285.766C151.049 285.999 151.171 286.289 151.171 286.634C151.171 286.979 151.049 287.273 150.807 287.516C150.573 287.749 150.284 287.866 149.939 287.866C149.593 287.866 149.299 287.749 149.057 287.516ZM155.682 289.98V293.354C155.682 293.643 155.757 293.872 155.906 294.04C156.056 294.199 156.233 294.278 156.438 294.278C156.83 294.278 157.162 294.101 157.432 293.746L158.216 295.216C157.563 295.813 156.872 296.112 156.144 296.112C155.426 296.112 154.814 295.874 154.31 295.398C153.816 294.922 153.568 294.273 153.568 293.452V289.98H152.686V288.468H153.568V286.214H155.682V288.468H157.502V289.98H155.682ZM171.582 289.462C171.582 291.03 170.961 292.043 169.72 292.5L172.198 296H169.51L167.34 292.878H165.828V296H163.644V286.214H167.354C168.875 286.214 169.958 286.471 170.602 286.984C171.255 287.497 171.582 288.323 171.582 289.462ZM167.424 290.988C168.171 290.988 168.679 290.867 168.95 290.624C169.221 290.381 169.356 289.999 169.356 289.476C169.356 288.944 169.216 288.58 168.936 288.384C168.656 288.188 168.166 288.09 167.466 288.09H165.828V290.988H167.424ZM180.33 294.908C179.48 295.711 178.482 296.112 177.334 296.112C176.195 296.112 175.252 295.762 174.506 295.062C173.759 294.353 173.386 293.405 173.386 292.22C173.386 291.035 173.764 290.092 174.52 289.392C175.285 288.692 176.186 288.342 177.222 288.342C178.258 288.342 179.135 288.655 179.854 289.28C180.582 289.905 180.946 290.764 180.946 291.856V292.976H175.458C175.523 293.387 175.738 293.723 176.102 293.984C176.466 294.245 176.876 294.376 177.334 294.376C178.071 294.376 178.678 294.129 179.154 293.634L180.33 294.908ZM178.818 291.478C178.771 291.03 178.603 290.685 178.314 290.442C178.024 290.199 177.67 290.078 177.25 290.078C176.839 290.078 176.461 290.204 176.116 290.456C175.77 290.708 175.57 291.049 175.514 291.478H178.818ZM185.838 296.112C184.877 296.112 184.037 295.753 183.318 295.034C182.599 294.306 182.24 293.377 182.24 292.248C182.24 291.109 182.59 290.176 183.29 289.448C183.99 288.711 184.769 288.342 185.628 288.342C186.487 288.342 187.238 288.664 187.882 289.308V288.468H189.996V298.716H187.882V295.398C187.285 295.874 186.603 296.112 185.838 296.112ZM184.354 292.248C184.354 292.855 184.536 293.354 184.9 293.746C185.264 294.129 185.689 294.32 186.174 294.32C186.659 294.32 187.07 294.129 187.406 293.746C187.742 293.354 187.91 292.855 187.91 292.248C187.91 291.632 187.742 291.123 187.406 290.722C187.07 290.311 186.655 290.106 186.16 290.106C185.665 290.106 185.241 290.311 184.886 290.722C184.531 291.123 184.354 291.632 184.354 292.248ZM197.042 292.528V288.468H199.156V296H197.042V295.006C196.52 295.743 195.843 296.112 195.012 296.112C194.191 296.112 193.5 295.855 192.94 295.342C192.38 294.819 192.1 294.049 192.1 293.032V288.468H194.214V292.57C194.214 293.727 194.639 294.306 195.488 294.306C195.908 294.306 196.272 294.157 196.58 293.858C196.888 293.55 197.042 293.107 197.042 292.528ZM207.863 294.908C207.014 295.711 206.015 296.112 204.867 296.112C203.729 296.112 202.786 295.762 202.039 295.062C201.293 294.353 200.919 293.405 200.919 292.22C200.919 291.035 201.297 290.092 202.053 289.392C202.819 288.692 203.719 288.342 204.755 288.342C205.791 288.342 206.669 288.655 207.387 289.28C208.115 289.905 208.479 290.764 208.479 291.856V292.976H202.991C203.057 293.387 203.271 293.723 203.635 293.984C203.999 294.245 204.41 294.376 204.867 294.376C205.605 294.376 206.211 294.129 206.687 293.634L207.863 294.908ZM206.351 291.478C206.305 291.03 206.137 290.685 205.847 290.442C205.558 290.199 205.203 290.078 204.783 290.078C204.373 290.078 203.995 290.204 203.649 290.456C203.304 290.708 203.103 291.049 203.047 291.478H206.351ZM215.864 293.662C215.864 294.399 215.588 294.992 215.038 295.44C214.496 295.888 213.806 296.112 212.966 296.112C212.406 296.112 211.822 296.014 211.216 295.818C210.609 295.613 210.063 295.314 209.578 294.922L210.502 293.606C211.286 294.213 212.121 294.516 213.008 294.516C213.278 294.516 213.493 294.465 213.652 294.362C213.81 294.25 213.89 294.105 213.89 293.928C213.89 293.751 213.778 293.587 213.554 293.438C213.339 293.289 213.022 293.149 212.602 293.018C212.191 292.887 211.874 292.775 211.65 292.682C211.435 292.589 211.188 292.453 210.908 292.276C210.338 291.921 210.054 291.399 210.054 290.708C210.054 290.008 210.334 289.439 210.894 289C211.454 288.561 212.177 288.342 213.064 288.342C213.95 288.342 214.837 288.641 215.724 289.238L214.94 290.638C214.286 290.19 213.633 289.966 212.98 289.966C212.336 289.966 212.014 290.143 212.014 290.498C212.014 290.694 212.116 290.848 212.322 290.96C212.527 291.072 212.868 291.203 213.344 291.352C213.82 291.501 214.156 291.618 214.352 291.702C214.557 291.777 214.8 291.898 215.08 292.066C215.602 292.383 215.864 292.915 215.864 293.662ZM220.118 289.98V293.354C220.118 293.643 220.193 293.872 220.342 294.04C220.492 294.199 220.669 294.278 220.874 294.278C221.266 294.278 221.598 294.101 221.868 293.746L222.652 295.216C221.999 295.813 221.308 296.112 220.58 296.112C219.862 296.112 219.25 295.874 218.746 295.398C218.252 294.922 218.004 294.273 218.004 293.452V289.98H217.122V288.468H218.004V286.214H220.118V288.468H221.938V289.98H220.118Z" fill="#23A6F0"/>
<defs>
<clipPath id="clip0_232_902">
<rect width="219" height="48" fill="white" transform="translate(55 167)"/>
</clipPath>
</defs>
</svg>
