<svg width="329" height="333" viewBox="0 0 329 333" fill="none" xmlns="http://www.w3.org/2000/svg">
<rect width="328" height="333" transform="translate(0.5)" fill="white"/>
<g clip-path="url(#clip0_232_892)">
<path d="M184.929 88.9947C184.578 88.6426 184.16 88.3632 183.7 88.1726C183.241 87.982 182.748 87.8839 182.251 87.8839C181.753 87.8839 181.26 87.982 180.801 88.1726C180.341 88.3632 179.924 88.6426 179.572 88.9947L173.534 95.0334C170.734 94.1999 165.51 92.3057 162.199 88.9947C158.888 85.6836 156.993 80.4594 156.16 77.6598L162.199 71.6211C162.551 71.2696 162.83 70.8521 163.021 70.3925C163.211 69.9329 163.309 69.4403 163.309 68.9427C163.309 68.4452 163.211 67.9525 163.021 67.4929C162.83 67.0333 162.551 66.6159 162.199 66.2643L147.045 51.1108C146.694 50.7586 146.276 50.4793 145.816 50.2887C145.357 50.0981 144.864 50 144.367 50C143.869 50 143.376 50.0981 142.917 50.2887C142.457 50.4793 142.04 50.7586 141.688 51.1108L131.414 61.3849C129.975 62.8245 129.164 64.802 129.194 66.8212C129.281 72.2159 130.71 90.9533 145.477 105.72C160.244 120.488 178.981 121.912 184.38 122.003H184.486C186.486 122.003 188.376 121.215 189.808 119.783L200.083 109.509C200.435 109.157 200.714 108.74 200.905 108.28C201.095 107.821 201.193 107.328 201.193 106.83C201.193 106.333 201.095 105.84 200.905 105.381C200.714 104.921 200.435 104.504 200.083 104.152L184.929 88.9947ZM184.448 114.422C179.72 114.343 163.544 113.074 150.833 100.36C138.082 87.6081 136.847 71.3749 136.771 66.7417L144.367 59.1459L154.163 68.9427L149.265 73.8411C148.82 74.2861 148.492 74.835 148.313 75.4382C148.133 76.0414 148.106 76.68 148.235 77.2961C148.326 77.7318 150.549 88.0627 156.838 94.3515C163.127 100.64 173.458 102.864 173.893 102.955C174.509 103.087 175.148 103.063 175.752 102.883C176.356 102.704 176.905 102.375 177.348 101.928L182.251 97.0299L192.047 106.827L184.448 114.422Z" fill="#23A6F0"/>
</g>
<g clip-path="url(#clip1_232_892)">
<path d="M63.0849 150.08C63.0849 149.473 62.9169 148.997 62.5809 148.652C62.2449 148.307 61.8296 148.134 61.3349 148.134C60.8402 148.134 60.4109 148.307 60.0469 148.652C59.6922 148.997 59.5149 149.469 59.5149 150.066C59.5149 150.663 59.6876 151.149 60.0329 151.522C60.3876 151.886 60.8169 152.068 61.3209 152.068C61.8249 152.068 62.2449 151.886 62.5809 151.522C62.9169 151.158 63.0849 150.677 63.0849 150.08ZM63.3789 152.726C62.7162 153.463 61.8902 153.832 60.9009 153.832C59.9209 153.832 59.0902 153.501 58.4089 152.838C57.7369 152.166 57.4009 151.275 57.4009 150.164C57.4009 149.044 57.7462 148.129 58.4369 147.42C59.1369 146.701 59.9349 146.342 60.8309 146.342C61.7269 146.342 62.4689 146.711 63.0569 147.448V146.454H65.1569V153.02C65.1569 153.692 65.0402 154.289 64.8069 154.812C64.5736 155.335 64.2609 155.745 63.8689 156.044C63.0942 156.66 62.1796 156.968 61.1249 156.968C60.5649 156.968 59.9909 156.875 59.4029 156.688C58.8242 156.511 58.3156 156.254 57.8769 155.918L58.6889 154.336C59.3796 154.859 60.1076 155.12 60.8729 155.12C61.6476 155.12 62.2589 154.929 62.7069 154.546C63.1549 154.163 63.3789 153.557 63.3789 152.726ZM73.8688 152.908C73.0194 153.711 72.0208 154.112 70.8728 154.112C69.7341 154.112 68.7914 153.762 68.0448 153.062C67.2981 152.353 66.9248 151.405 66.9248 150.22C66.9248 149.035 67.3028 148.092 68.0588 147.392C68.8241 146.692 69.7248 146.342 70.7608 146.342C71.7968 146.342 72.6741 146.655 73.3928 147.28C74.1208 147.905 74.4848 148.764 74.4848 149.856V150.976H68.9968C69.0621 151.387 69.2768 151.723 69.6408 151.984C70.0048 152.245 70.4154 152.376 70.8728 152.376C71.6101 152.376 72.2168 152.129 72.6928 151.634L73.8688 152.908ZM72.3568 149.478C72.3101 149.03 72.1421 148.685 71.8528 148.442C71.5634 148.199 71.2088 148.078 70.7888 148.078C70.3781 148.078 70.0001 148.204 69.6548 148.456C69.3094 148.708 69.1088 149.049 69.0528 149.478H72.3568ZM77.8791 150.234C77.8791 150.85 78.0517 151.354 78.3971 151.746C78.7517 152.129 79.1997 152.32 79.7411 152.32C80.2917 152.32 80.7397 152.129 81.0851 151.746C81.4397 151.354 81.6171 150.85 81.6171 150.234C81.6171 149.618 81.4397 149.114 81.0851 148.722C80.7397 148.33 80.2917 148.134 79.7411 148.134C79.1997 148.134 78.7517 148.33 78.3971 148.722C78.0517 149.114 77.8791 149.618 77.8791 150.234ZM83.7311 150.234C83.7311 151.326 83.3531 152.245 82.5971 152.992C81.8411 153.739 80.8891 154.112 79.7411 154.112C78.6024 154.112 77.6551 153.739 76.8991 152.992C76.1431 152.245 75.7651 151.326 75.7651 150.234C75.7651 149.142 76.1431 148.223 76.8991 147.476C77.6551 146.72 78.6024 146.342 79.7411 146.342C80.8891 146.342 81.8411 146.72 82.5971 147.476C83.3531 148.223 83.7311 149.142 83.7311 150.234ZM89.4529 148.316C88.8275 148.316 88.3609 148.54 88.0529 148.988C87.7449 149.427 87.5909 150.01 87.5909 150.738V154H85.4909V146.468H87.5909V147.462C87.8615 147.154 88.1975 146.893 88.5989 146.678C89.0095 146.463 89.4249 146.351 89.8449 146.342L89.8589 148.316H89.4529ZM96.7247 150.08C96.7247 149.473 96.5567 148.997 96.2207 148.652C95.8847 148.307 95.4694 148.134 94.9747 148.134C94.4801 148.134 94.0507 148.307 93.6867 148.652C93.3321 148.997 93.1547 149.469 93.1547 150.066C93.1547 150.663 93.3274 151.149 93.6727 151.522C94.0274 151.886 94.4567 152.068 94.9607 152.068C95.4647 152.068 95.8847 151.886 96.2207 151.522C96.5567 151.158 96.7247 150.677 96.7247 150.08ZM97.0187 152.726C96.3561 153.463 95.5301 153.832 94.5407 153.832C93.5607 153.832 92.7301 153.501 92.0487 152.838C91.3767 152.166 91.0407 151.275 91.0407 150.164C91.0407 149.044 91.3861 148.129 92.0767 147.42C92.7767 146.701 93.5747 146.342 94.4707 146.342C95.3667 146.342 96.1087 146.711 96.6967 147.448V146.454H98.7967V153.02C98.7967 153.692 98.6801 154.289 98.4467 154.812C98.2134 155.335 97.9007 155.745 97.5087 156.044C96.7341 156.66 95.8194 156.968 94.7647 156.968C94.2047 156.968 93.6307 156.875 93.0427 156.688C92.4641 156.511 91.9554 156.254 91.5167 155.918L92.3287 154.336C93.0194 154.859 93.7474 155.12 94.5127 155.12C95.2874 155.12 95.8987 154.929 96.3467 154.546C96.7947 154.163 97.0187 153.557 97.0187 152.726ZM103.085 154H100.985V146.468H103.085V154ZM101.153 145.516C100.919 145.273 100.803 144.979 100.803 144.634C100.803 144.289 100.919 143.999 101.153 143.766C101.395 143.523 101.689 143.402 102.035 143.402C102.38 143.402 102.669 143.523 102.903 143.766C103.145 143.999 103.267 144.289 103.267 144.634C103.267 144.979 103.145 145.273 102.903 145.516C102.669 145.749 102.38 145.866 102.035 145.866C101.689 145.866 101.395 145.749 101.153 145.516ZM111.671 154H109.697V153.09C109.155 153.771 108.483 154.112 107.681 154.112C106.887 154.112 106.22 153.883 105.679 153.426C105.137 152.959 104.867 152.343 104.867 151.578C104.867 150.803 105.147 150.225 105.707 149.842C106.267 149.459 107.032 149.268 108.003 149.268H109.571V149.226C109.571 148.423 109.146 148.022 108.297 148.022C107.933 148.022 107.545 148.097 107.135 148.246C106.733 148.386 106.393 148.563 106.113 148.778L105.175 147.42C106.164 146.701 107.293 146.342 108.563 146.342C109.477 146.342 110.224 146.571 110.803 147.028C111.381 147.485 111.671 148.209 111.671 149.198V154ZM109.557 151.13V150.766H108.241C107.401 150.766 106.981 151.027 106.981 151.55C106.981 151.821 107.079 152.031 107.275 152.18C107.48 152.32 107.769 152.39 108.143 152.39C108.516 152.39 108.843 152.278 109.123 152.054C109.412 151.821 109.557 151.513 109.557 151.13ZM113.925 153.762C113.692 153.519 113.575 153.225 113.575 152.88C113.575 152.535 113.692 152.245 113.925 152.012C114.168 151.769 114.462 151.648 114.807 151.648C115.152 151.648 115.442 151.769 115.675 152.012C115.918 152.245 116.039 152.535 116.039 152.88C116.039 153.225 115.918 153.519 115.675 153.762C115.442 153.995 115.152 154.112 114.807 154.112C114.462 154.112 114.168 153.995 113.925 153.762ZM118.842 156.968C118.104 156.968 117.409 156.669 116.756 156.072L117.708 154.518C118.062 154.863 118.426 155.036 118.8 155.036C118.996 155.036 119.164 154.938 119.304 154.742C119.444 154.555 119.514 154.355 119.514 154.14C119.514 153.925 118.543 151.368 116.602 146.468H118.842L120.676 151.158L122.51 146.468H124.75L121.25 155.344C121.044 155.857 120.722 156.254 120.284 156.534C119.854 156.823 119.374 156.968 118.842 156.968ZM127.5 150.234C127.5 150.85 127.672 151.354 128.018 151.746C128.372 152.129 128.82 152.32 129.362 152.32C129.912 152.32 130.36 152.129 130.706 151.746C131.06 151.354 131.238 150.85 131.238 150.234C131.238 149.618 131.06 149.114 130.706 148.722C130.36 148.33 129.912 148.134 129.362 148.134C128.82 148.134 128.372 148.33 128.018 148.722C127.672 149.114 127.5 149.618 127.5 150.234ZM133.352 150.234C133.352 151.326 132.974 152.245 132.218 152.992C131.462 153.739 130.51 154.112 129.362 154.112C128.223 154.112 127.276 153.739 126.52 152.992C125.764 152.245 125.386 151.326 125.386 150.234C125.386 149.142 125.764 148.223 126.52 147.476C127.276 146.72 128.223 146.342 129.362 146.342C130.51 146.342 131.462 146.72 132.218 147.476C132.974 148.223 133.352 149.142 133.352 150.234ZM139.97 150.528V146.468H142.084V154H139.97V153.006C139.447 153.743 138.77 154.112 137.94 154.112C137.118 154.112 136.428 153.855 135.868 153.342C135.308 152.819 135.028 152.049 135.028 151.032V146.468H137.142V150.57C137.142 151.727 137.566 152.306 138.416 152.306C138.836 152.306 139.2 152.157 139.508 151.858C139.816 151.55 139.97 151.107 139.97 150.528ZM146.367 149.8V154H144.267V146.468H146.367V147.308C147.001 146.664 147.715 146.342 148.509 146.342C149.302 146.342 149.965 146.622 150.497 147.182C151.038 147.742 151.309 148.489 151.309 149.422V154H149.209V149.744C149.209 148.587 148.784 148.008 147.935 148.008C147.515 148.008 147.146 148.162 146.829 148.47C146.521 148.769 146.367 149.212 146.367 149.8ZM158.686 150.08C158.686 149.473 158.518 148.997 158.182 148.652C157.846 148.307 157.431 148.134 156.936 148.134C156.441 148.134 156.012 148.307 155.648 148.652C155.293 148.997 155.116 149.469 155.116 150.066C155.116 150.663 155.289 151.149 155.634 151.522C155.989 151.886 156.418 152.068 156.922 152.068C157.426 152.068 157.846 151.886 158.182 151.522C158.518 151.158 158.686 150.677 158.686 150.08ZM158.98 152.726C158.317 153.463 157.491 153.832 156.502 153.832C155.522 153.832 154.691 153.501 154.01 152.838C153.338 152.166 153.002 151.275 153.002 150.164C153.002 149.044 153.347 148.129 154.038 147.42C154.738 146.701 155.536 146.342 156.432 146.342C157.328 146.342 158.07 146.711 158.658 147.448V146.454H160.758V153.02C160.758 153.692 160.641 154.289 160.408 154.812C160.175 155.335 159.862 155.745 159.47 156.044C158.695 156.66 157.781 156.968 156.726 156.968C156.166 156.968 155.592 156.875 155.004 156.688C154.425 156.511 153.917 156.254 153.478 155.918L154.29 154.336C154.981 154.859 155.709 155.12 156.474 155.12C157.249 155.12 157.86 154.929 158.308 154.546C158.756 154.163 158.98 153.557 158.98 152.726ZM171.584 152.292C171.836 152.292 172.055 152.091 172.242 151.69C172.438 151.289 172.536 150.785 172.536 150.178C172.536 148.862 172.158 147.775 171.402 146.916C170.646 146.048 169.633 145.614 168.364 145.614C167.095 145.614 166.026 146.067 165.158 146.972C164.29 147.877 163.856 148.965 163.856 150.234C163.856 151.494 164.262 152.544 165.074 153.384C165.895 154.224 166.908 154.644 168.112 154.644C169.055 154.644 169.885 154.299 170.604 153.608L171.178 154.602C170.805 154.929 170.329 155.19 169.75 155.386C169.171 155.591 168.625 155.694 168.112 155.694C166.553 155.694 165.247 155.171 164.192 154.126C163.147 153.09 162.624 151.793 162.624 150.234C162.624 148.666 163.175 147.331 164.276 146.23C165.387 145.119 166.721 144.564 168.28 144.564C169.839 144.564 171.141 145.096 172.186 146.16C173.231 147.224 173.754 148.549 173.754 150.136C173.754 151.163 173.539 151.989 173.11 152.614C172.69 153.23 172.135 153.538 171.444 153.538C171.089 153.538 170.763 153.431 170.464 153.216C170.175 153.001 169.974 152.731 169.862 152.404C169.349 153.067 168.695 153.398 167.902 153.398C167.118 153.398 166.432 153.099 165.844 152.502C165.265 151.905 164.976 151.149 164.976 150.234C164.976 149.31 165.237 148.535 165.76 147.91C166.292 147.275 166.987 146.958 167.846 146.958C168.135 146.958 168.411 147.023 168.672 147.154C168.933 147.275 169.12 147.397 169.232 147.518L169.414 147.7V147.126H171.164V151.592C171.164 152.059 171.304 152.292 171.584 152.292ZM169.428 150.178C169.428 149.711 169.302 149.324 169.05 149.016C168.807 148.708 168.485 148.554 168.084 148.554C167.683 148.554 167.361 148.708 167.118 149.016C166.885 149.324 166.768 149.707 166.768 150.164C166.768 150.612 166.885 151.004 167.118 151.34C167.361 151.676 167.687 151.844 168.098 151.844C168.509 151.844 168.831 151.685 169.064 151.368C169.307 151.041 169.428 150.645 169.428 150.178ZM182.139 152.908C181.289 153.711 180.291 154.112 179.143 154.112C178.004 154.112 177.061 153.762 176.315 153.062C175.568 152.353 175.195 151.405 175.195 150.22C175.195 149.035 175.573 148.092 176.329 147.392C177.094 146.692 177.995 146.342 179.031 146.342C180.067 146.342 180.944 146.655 181.663 147.28C182.391 147.905 182.755 148.764 182.755 149.856V150.976H177.267C177.332 151.387 177.547 151.723 177.911 151.984C178.275 152.245 178.685 152.376 179.143 152.376C179.88 152.376 180.487 152.129 180.963 151.634L182.139 152.908ZM180.627 149.478C180.58 149.03 180.412 148.685 180.123 148.442C179.833 148.199 179.479 148.078 179.059 148.078C178.648 148.078 178.27 148.204 177.925 148.456C177.579 148.708 177.379 149.049 177.323 149.478H180.627ZM186.098 146.468L187.386 148.484L188.716 146.468H191.18L188.59 150.15L191.278 154H188.772L187.302 151.928L185.874 154H183.452L186.084 150.164L183.592 146.468H186.098ZM198.915 154H196.941V153.09C196.399 153.771 195.727 154.112 194.925 154.112C194.131 154.112 193.464 153.883 192.923 153.426C192.381 152.959 192.111 152.343 192.111 151.578C192.111 150.803 192.391 150.225 192.951 149.842C193.511 149.459 194.276 149.268 195.247 149.268H196.815V149.226C196.815 148.423 196.39 148.022 195.541 148.022C195.177 148.022 194.789 148.097 194.379 148.246C193.977 148.386 193.637 148.563 193.357 148.778L192.419 147.42C193.408 146.701 194.537 146.342 195.807 146.342C196.721 146.342 197.468 146.571 198.047 147.028C198.625 147.485 198.915 148.209 198.915 149.198V154ZM196.801 151.13V150.766H195.485C194.645 150.766 194.225 151.027 194.225 151.55C194.225 151.821 194.323 152.031 194.519 152.18C194.724 152.32 195.013 152.39 195.387 152.39C195.76 152.39 196.087 152.278 196.367 152.054C196.656 151.821 196.801 151.513 196.801 151.13ZM207.945 149.94V154H205.831V149.884C205.831 149.287 205.738 148.848 205.551 148.568C205.374 148.288 205.08 148.148 204.669 148.148C204.268 148.148 203.908 148.302 203.591 148.61C203.283 148.909 203.129 149.352 203.129 149.94V154H201.029V146.468H203.129V147.322C203.708 146.669 204.37 146.342 205.117 146.342C205.593 146.342 206.022 146.482 206.405 146.762C206.797 147.042 207.091 147.383 207.287 147.784C207.576 147.327 207.964 146.972 208.449 146.72C208.944 146.468 209.438 146.342 209.933 146.342C210.82 146.342 211.534 146.608 212.075 147.14C212.616 147.663 212.887 148.423 212.887 149.422V154H210.773V149.884C210.773 148.727 210.348 148.148 209.499 148.148C209.079 148.148 208.715 148.302 208.407 148.61C208.099 148.909 207.945 149.352 207.945 149.94ZM219.379 146.342C220.256 146.342 221.035 146.711 221.717 147.448C222.407 148.176 222.753 149.095 222.753 150.206C222.753 151.317 222.407 152.245 221.717 152.992C221.035 153.739 220.233 154.112 219.309 154.112C218.394 154.112 217.657 153.743 217.097 153.006V156.716H214.997V146.468H217.097V147.308C217.741 146.664 218.501 146.342 219.379 146.342ZM217.069 150.248C217.069 150.855 217.237 151.354 217.573 151.746C217.918 152.129 218.333 152.32 218.819 152.32C219.304 152.32 219.729 152.129 220.093 151.746C220.457 151.354 220.639 150.855 220.639 150.248C220.639 149.641 220.461 149.133 220.107 148.722C219.752 148.311 219.327 148.106 218.833 148.106C218.338 148.106 217.918 148.311 217.573 148.722C217.237 149.123 217.069 149.632 217.069 150.248ZM226.621 154H224.521V143.612H226.621V154ZM235.333 152.908C234.484 153.711 233.485 154.112 232.337 154.112C231.198 154.112 230.256 153.762 229.509 153.062C228.762 152.353 228.389 151.405 228.389 150.22C228.389 149.035 228.767 148.092 229.523 147.392C230.288 146.692 231.189 146.342 232.225 146.342C233.261 146.342 234.138 146.655 234.857 147.28C235.585 147.905 235.949 148.764 235.949 149.856V150.976H230.461C230.526 151.387 230.741 151.723 231.105 151.984C231.469 152.245 231.88 152.376 232.337 152.376C233.074 152.376 233.681 152.129 234.157 151.634L235.333 152.908ZM233.821 149.478C233.774 149.03 233.606 148.685 233.317 148.442C233.028 148.199 232.673 148.078 232.253 148.078C231.842 148.078 231.464 148.204 231.119 148.456C230.774 148.708 230.573 149.049 230.517 149.478H233.821ZM237.803 153.762C237.57 153.519 237.453 153.225 237.453 152.88C237.453 152.535 237.57 152.245 237.803 152.012C238.046 151.769 238.34 151.648 238.685 151.648C239.03 151.648 239.32 151.769 239.553 152.012C239.796 152.245 239.917 152.535 239.917 152.88C239.917 153.225 239.796 153.519 239.553 153.762C239.32 153.995 239.03 154.112 238.685 154.112C238.34 154.112 238.046 153.995 237.803 153.762ZM245.508 152.25C246.208 152.25 246.838 151.9 247.398 151.2L248.644 152.6C247.674 153.608 246.624 154.112 245.494 154.112C244.365 154.112 243.408 153.757 242.624 153.048C241.85 152.329 241.462 151.396 241.462 150.248C241.462 149.091 241.854 148.153 242.638 147.434C243.432 146.706 244.37 146.342 245.452 146.342C245.994 146.342 246.54 146.454 247.09 146.678C247.65 146.902 248.14 147.233 248.56 147.672L247.468 149.1C247.226 148.811 246.927 148.587 246.572 148.428C246.227 148.269 245.882 148.19 245.536 148.19C244.986 148.19 244.51 148.372 244.108 148.736C243.716 149.091 243.52 149.59 243.52 150.234C243.52 150.869 243.716 151.363 244.108 151.718C244.51 152.073 244.976 152.25 245.508 152.25ZM251.802 150.234C251.802 150.85 251.974 151.354 252.32 151.746C252.674 152.129 253.122 152.32 253.664 152.32C254.214 152.32 254.662 152.129 255.008 151.746C255.362 151.354 255.54 150.85 255.54 150.234C255.54 149.618 255.362 149.114 255.008 148.722C254.662 148.33 254.214 148.134 253.664 148.134C253.122 148.134 252.674 148.33 252.32 148.722C251.974 149.114 251.802 149.618 251.802 150.234ZM257.654 150.234C257.654 151.326 257.276 152.245 256.52 152.992C255.764 153.739 254.812 154.112 253.664 154.112C252.525 154.112 251.578 153.739 250.822 152.992C250.066 152.245 249.688 151.326 249.688 150.234C249.688 149.142 250.066 148.223 250.822 147.476C251.578 146.72 252.525 146.342 253.664 146.342C254.812 146.342 255.764 146.72 256.52 147.476C257.276 148.223 257.654 149.142 257.654 150.234ZM266.33 149.94V154H264.216V149.884C264.216 149.287 264.122 148.848 263.936 148.568C263.758 148.288 263.464 148.148 263.054 148.148C262.652 148.148 262.293 148.302 261.976 148.61C261.668 148.909 261.514 149.352 261.514 149.94V154H259.414V146.468H261.514V147.322C262.092 146.669 262.755 146.342 263.502 146.342C263.978 146.342 264.407 146.482 264.79 146.762C265.182 147.042 265.476 147.383 265.672 147.784C265.961 147.327 266.348 146.972 266.834 146.72C267.328 146.468 267.823 146.342 268.318 146.342C269.204 146.342 269.918 146.608 270.46 147.14C271.001 147.663 271.272 148.423 271.272 149.422V154H269.158V149.884C269.158 148.727 268.733 148.148 267.884 148.148C267.464 148.148 267.1 148.302 266.792 148.61C266.484 148.909 266.33 149.352 266.33 149.94Z" fill="#252B42"/>
<path d="M86.7759 174.08C86.7759 173.473 86.6079 172.997 86.2719 172.652C85.9359 172.307 85.5206 172.134 85.0259 172.134C84.5312 172.134 84.1019 172.307 83.7379 172.652C83.3832 172.997 83.2059 173.469 83.2059 174.066C83.2059 174.663 83.3786 175.149 83.7239 175.522C84.0786 175.886 84.5079 176.068 85.0119 176.068C85.5159 176.068 85.9359 175.886 86.2719 175.522C86.6079 175.158 86.7759 174.677 86.7759 174.08ZM87.0699 176.726C86.4072 177.463 85.5812 177.832 84.5919 177.832C83.6119 177.832 82.7812 177.501 82.0999 176.838C81.4279 176.166 81.0919 175.275 81.0919 174.164C81.0919 173.044 81.4372 172.129 82.1279 171.42C82.8279 170.701 83.6259 170.342 84.5219 170.342C85.4179 170.342 86.1599 170.711 86.7479 171.448V170.454H88.8479V177.02C88.8479 177.692 88.7312 178.289 88.4979 178.812C88.2646 179.335 87.9519 179.745 87.5599 180.044C86.7852 180.66 85.8706 180.968 84.8159 180.968C84.2559 180.968 83.6819 180.875 83.0939 180.688C82.5152 180.511 82.0066 180.254 81.5679 179.918L82.3799 178.336C83.0706 178.859 83.7986 179.12 84.5639 179.12C85.3386 179.12 85.9499 178.929 86.3979 178.546C86.8459 178.163 87.0699 177.557 87.0699 176.726ZM97.5598 176.908C96.7105 177.711 95.7118 178.112 94.5638 178.112C93.4251 178.112 92.4825 177.762 91.7358 177.062C90.9891 176.353 90.6158 175.405 90.6158 174.22C90.6158 173.035 90.9938 172.092 91.7498 171.392C92.5151 170.692 93.4158 170.342 94.4518 170.342C95.4878 170.342 96.3651 170.655 97.0838 171.28C97.8118 171.905 98.1758 172.764 98.1758 173.856V174.976H92.6878C92.7531 175.387 92.9678 175.723 93.3318 175.984C93.6958 176.245 94.1065 176.376 94.5638 176.376C95.3011 176.376 95.9078 176.129 96.3838 175.634L97.5598 176.908ZM96.0478 173.478C96.0011 173.03 95.8331 172.685 95.5438 172.442C95.2545 172.199 94.8998 172.078 94.4798 172.078C94.0691 172.078 93.6911 172.204 93.3458 172.456C93.0005 172.708 92.7998 173.049 92.7438 173.478H96.0478ZM101.57 174.234C101.57 174.85 101.743 175.354 102.088 175.746C102.443 176.129 102.891 176.32 103.432 176.32C103.983 176.32 104.431 176.129 104.776 175.746C105.131 175.354 105.308 174.85 105.308 174.234C105.308 173.618 105.131 173.114 104.776 172.722C104.431 172.33 103.983 172.134 103.432 172.134C102.891 172.134 102.443 172.33 102.088 172.722C101.743 173.114 101.57 173.618 101.57 174.234ZM107.422 174.234C107.422 175.326 107.044 176.245 106.288 176.992C105.532 177.739 104.58 178.112 103.432 178.112C102.293 178.112 101.346 177.739 100.59 176.992C99.8341 176.245 99.4561 175.326 99.4561 174.234C99.4561 173.142 99.8341 172.223 100.59 171.476C101.346 170.72 102.293 170.342 103.432 170.342C104.58 170.342 105.532 170.72 106.288 171.476C107.044 172.223 107.422 173.142 107.422 174.234ZM113.144 172.316C112.519 172.316 112.052 172.54 111.744 172.988C111.436 173.427 111.282 174.01 111.282 174.738V178H109.182V170.468H111.282V171.462C111.553 171.154 111.889 170.893 112.29 170.678C112.701 170.463 113.116 170.351 113.536 170.342L113.55 172.316H113.144ZM120.416 174.08C120.416 173.473 120.248 172.997 119.912 172.652C119.576 172.307 119.16 172.134 118.666 172.134C118.171 172.134 117.742 172.307 117.378 172.652C117.023 172.997 116.846 173.469 116.846 174.066C116.846 174.663 117.018 175.149 117.364 175.522C117.718 175.886 118.148 176.068 118.652 176.068C119.156 176.068 119.576 175.886 119.912 175.522C120.248 175.158 120.416 174.677 120.416 174.08ZM120.71 176.726C120.047 177.463 119.221 177.832 118.232 177.832C117.252 177.832 116.421 177.501 115.74 176.838C115.068 176.166 114.732 175.275 114.732 174.164C114.732 173.044 115.077 172.129 115.768 171.42C116.468 170.701 117.266 170.342 118.162 170.342C119.058 170.342 119.8 170.711 120.388 171.448V170.454H122.488V177.02C122.488 177.692 122.371 178.289 122.138 178.812C121.904 179.335 121.592 179.745 121.2 180.044C120.425 180.66 119.51 180.968 118.456 180.968C117.896 180.968 117.322 180.875 116.734 180.688C116.155 180.511 115.646 180.254 115.208 179.918L116.02 178.336C116.71 178.859 117.438 179.12 118.204 179.12C118.978 179.12 119.59 178.929 120.038 178.546C120.486 178.163 120.71 177.557 120.71 176.726ZM126.776 178H124.676V170.468H126.776V178ZM124.844 169.516C124.61 169.273 124.494 168.979 124.494 168.634C124.494 168.289 124.61 167.999 124.844 167.766C125.086 167.523 125.38 167.402 125.726 167.402C126.071 167.402 126.36 167.523 126.594 167.766C126.836 167.999 126.958 168.289 126.958 168.634C126.958 168.979 126.836 169.273 126.594 169.516C126.36 169.749 126.071 169.866 125.726 169.866C125.38 169.866 125.086 169.749 124.844 169.516ZM135.362 178H133.388V177.09C132.846 177.771 132.174 178.112 131.372 178.112C130.578 178.112 129.911 177.883 129.37 177.426C128.828 176.959 128.558 176.343 128.558 175.578C128.558 174.803 128.838 174.225 129.398 173.842C129.958 173.459 130.723 173.268 131.694 173.268H133.262V173.226C133.262 172.423 132.837 172.022 131.988 172.022C131.624 172.022 131.236 172.097 130.826 172.246C130.424 172.386 130.084 172.563 129.804 172.778L128.866 171.42C129.855 170.701 130.984 170.342 132.254 170.342C133.168 170.342 133.915 170.571 134.494 171.028C135.072 171.485 135.362 172.209 135.362 173.198V178ZM133.248 175.13V174.766H131.932C131.092 174.766 130.672 175.027 130.672 175.55C130.672 175.821 130.77 176.031 130.966 176.18C131.171 176.32 131.46 176.39 131.834 176.39C132.207 176.39 132.534 176.278 132.814 176.054C133.103 175.821 133.248 175.513 133.248 175.13ZM137.616 177.762C137.383 177.519 137.266 177.225 137.266 176.88C137.266 176.535 137.383 176.245 137.616 176.012C137.859 175.769 138.153 175.648 138.498 175.648C138.843 175.648 139.133 175.769 139.366 176.012C139.609 176.245 139.73 176.535 139.73 176.88C139.73 177.225 139.609 177.519 139.366 177.762C139.133 177.995 138.843 178.112 138.498 178.112C138.153 178.112 137.859 177.995 137.616 177.762ZM142.533 180.968C141.795 180.968 141.1 180.669 140.447 180.072L141.399 178.518C141.753 178.863 142.117 179.036 142.491 179.036C142.687 179.036 142.855 178.938 142.995 178.742C143.135 178.555 143.205 178.355 143.205 178.14C143.205 177.925 142.234 175.368 140.293 170.468H142.533L144.367 175.158L146.201 170.468H148.441L144.941 179.344C144.735 179.857 144.413 180.254 143.975 180.534C143.545 180.823 143.065 180.968 142.533 180.968ZM151.191 174.234C151.191 174.85 151.363 175.354 151.709 175.746C152.063 176.129 152.511 176.32 153.053 176.32C153.603 176.32 154.051 176.129 154.397 175.746C154.751 175.354 154.929 174.85 154.929 174.234C154.929 173.618 154.751 173.114 154.397 172.722C154.051 172.33 153.603 172.134 153.053 172.134C152.511 172.134 152.063 172.33 151.709 172.722C151.363 173.114 151.191 173.618 151.191 174.234ZM157.043 174.234C157.043 175.326 156.665 176.245 155.909 176.992C155.153 177.739 154.201 178.112 153.053 178.112C151.914 178.112 150.967 177.739 150.211 176.992C149.455 176.245 149.077 175.326 149.077 174.234C149.077 173.142 149.455 172.223 150.211 171.476C150.967 170.72 151.914 170.342 153.053 170.342C154.201 170.342 155.153 170.72 155.909 171.476C156.665 172.223 157.043 173.142 157.043 174.234ZM163.661 174.528V170.468H165.775V178H163.661V177.006C163.138 177.743 162.461 178.112 161.631 178.112C160.809 178.112 160.119 177.855 159.559 177.342C158.999 176.819 158.719 176.049 158.719 175.032V170.468H160.833V174.57C160.833 175.727 161.257 176.306 162.107 176.306C162.527 176.306 162.891 176.157 163.199 175.858C163.507 175.55 163.661 175.107 163.661 174.528ZM170.058 173.8V178H167.958V170.468H170.058V171.308C170.692 170.664 171.406 170.342 172.2 170.342C172.993 170.342 173.656 170.622 174.188 171.182C174.729 171.742 175 172.489 175 173.422V178H172.9V173.744C172.9 172.587 172.475 172.008 171.626 172.008C171.206 172.008 170.837 172.162 170.52 172.47C170.212 172.769 170.058 173.212 170.058 173.8ZM182.377 174.08C182.377 173.473 182.209 172.997 181.873 172.652C181.537 172.307 181.122 172.134 180.627 172.134C180.132 172.134 179.703 172.307 179.339 172.652C178.984 172.997 178.807 173.469 178.807 174.066C178.807 174.663 178.98 175.149 179.325 175.522C179.68 175.886 180.109 176.068 180.613 176.068C181.117 176.068 181.537 175.886 181.873 175.522C182.209 175.158 182.377 174.677 182.377 174.08ZM182.671 176.726C182.008 177.463 181.182 177.832 180.193 177.832C179.213 177.832 178.382 177.501 177.701 176.838C177.029 176.166 176.693 175.275 176.693 174.164C176.693 173.044 177.038 172.129 177.729 171.42C178.429 170.701 179.227 170.342 180.123 170.342C181.019 170.342 181.761 170.711 182.349 171.448V170.454H184.449V177.02C184.449 177.692 184.332 178.289 184.099 178.812C183.866 179.335 183.553 179.745 183.161 180.044C182.386 180.66 181.472 180.968 180.417 180.968C179.857 180.968 179.283 180.875 178.695 180.688C178.116 180.511 177.608 180.254 177.169 179.918L177.981 178.336C178.672 178.859 179.4 179.12 180.165 179.12C180.94 179.12 181.551 178.929 181.999 178.546C182.447 178.163 182.671 177.557 182.671 176.726ZM195.275 176.292C195.527 176.292 195.746 176.091 195.933 175.69C196.129 175.289 196.227 174.785 196.227 174.178C196.227 172.862 195.849 171.775 195.093 170.916C194.337 170.048 193.324 169.614 192.055 169.614C190.786 169.614 189.717 170.067 188.849 170.972C187.981 171.877 187.547 172.965 187.547 174.234C187.547 175.494 187.953 176.544 188.765 177.384C189.586 178.224 190.599 178.644 191.803 178.644C192.746 178.644 193.576 178.299 194.295 177.608L194.869 178.602C194.496 178.929 194.02 179.19 193.441 179.386C192.862 179.591 192.316 179.694 191.803 179.694C190.244 179.694 188.938 179.171 187.883 178.126C186.838 177.09 186.315 175.793 186.315 174.234C186.315 172.666 186.866 171.331 187.967 170.23C189.078 169.119 190.412 168.564 191.971 168.564C193.53 168.564 194.832 169.096 195.877 170.16C196.922 171.224 197.445 172.549 197.445 174.136C197.445 175.163 197.23 175.989 196.801 176.614C196.381 177.23 195.826 177.538 195.135 177.538C194.78 177.538 194.454 177.431 194.155 177.216C193.866 177.001 193.665 176.731 193.553 176.404C193.04 177.067 192.386 177.398 191.593 177.398C190.809 177.398 190.123 177.099 189.535 176.502C188.956 175.905 188.667 175.149 188.667 174.234C188.667 173.31 188.928 172.535 189.451 171.91C189.983 171.275 190.678 170.958 191.537 170.958C191.826 170.958 192.102 171.023 192.363 171.154C192.624 171.275 192.811 171.397 192.923 171.518L193.105 171.7V171.126H194.855V175.592C194.855 176.059 194.995 176.292 195.275 176.292ZM193.119 174.178C193.119 173.711 192.993 173.324 192.741 173.016C192.498 172.708 192.176 172.554 191.775 172.554C191.374 172.554 191.052 172.708 190.809 173.016C190.576 173.324 190.459 173.707 190.459 174.164C190.459 174.612 190.576 175.004 190.809 175.34C191.052 175.676 191.378 175.844 191.789 175.844C192.2 175.844 192.522 175.685 192.755 175.368C192.998 175.041 193.119 174.645 193.119 174.178ZM203.688 170.342C204.565 170.342 205.344 170.711 206.026 171.448C206.716 172.176 207.062 173.095 207.062 174.206C207.062 175.317 206.716 176.245 206.026 176.992C205.344 177.739 204.542 178.112 203.618 178.112C202.703 178.112 201.966 177.743 201.406 177.006V180.716H199.306V170.468H201.406V171.308C202.05 170.664 202.81 170.342 203.688 170.342ZM201.378 174.248C201.378 174.855 201.546 175.354 201.882 175.746C202.227 176.129 202.642 176.32 203.128 176.32C203.613 176.32 204.038 176.129 204.402 175.746C204.766 175.354 204.948 174.855 204.948 174.248C204.948 173.641 204.77 173.133 204.416 172.722C204.061 172.311 203.636 172.106 203.142 172.106C202.647 172.106 202.227 172.311 201.882 172.722C201.546 173.123 201.378 173.632 201.378 174.248ZM210.93 178H208.83V167.612H210.93V178ZM219.642 176.908C218.792 177.711 217.794 178.112 216.646 178.112C215.507 178.112 214.564 177.762 213.818 177.062C213.071 176.353 212.698 175.405 212.698 174.22C212.698 173.035 213.076 172.092 213.832 171.392C214.597 170.692 215.498 170.342 216.534 170.342C217.57 170.342 218.447 170.655 219.166 171.28C219.894 171.905 220.258 172.764 220.258 173.856V174.976H214.77C214.835 175.387 215.05 175.723 215.414 175.984C215.778 176.245 216.188 176.376 216.646 176.376C217.383 176.376 217.99 176.129 218.466 175.634L219.642 176.908ZM218.13 173.478C218.083 173.03 217.915 172.685 217.626 172.442C217.336 172.199 216.982 172.078 216.562 172.078C216.151 172.078 215.773 172.204 215.428 172.456C215.082 172.708 214.882 173.049 214.826 173.478H218.13ZM222.112 177.762C221.879 177.519 221.762 177.225 221.762 176.88C221.762 176.535 221.879 176.245 222.112 176.012C222.355 175.769 222.649 175.648 222.994 175.648C223.339 175.648 223.629 175.769 223.862 176.012C224.105 176.245 224.226 176.535 224.226 176.88C224.226 177.225 224.105 177.519 223.862 177.762C223.629 177.995 223.339 178.112 222.994 178.112C222.649 178.112 222.355 177.995 222.112 177.762ZM229.817 176.25C230.517 176.25 231.147 175.9 231.707 175.2L232.953 176.6C231.983 177.608 230.933 178.112 229.803 178.112C228.674 178.112 227.717 177.757 226.933 177.048C226.159 176.329 225.771 175.396 225.771 174.248C225.771 173.091 226.163 172.153 226.947 171.434C227.741 170.706 228.679 170.342 229.761 170.342C230.303 170.342 230.849 170.454 231.399 170.678C231.959 170.902 232.449 171.233 232.869 171.672L231.777 173.1C231.535 172.811 231.236 172.587 230.881 172.428C230.536 172.269 230.191 172.19 229.845 172.19C229.295 172.19 228.819 172.372 228.417 172.736C228.025 173.091 227.829 173.59 227.829 174.234C227.829 174.869 228.025 175.363 228.417 175.718C228.819 176.073 229.285 176.25 229.817 176.25ZM236.111 174.234C236.111 174.85 236.283 175.354 236.629 175.746C236.983 176.129 237.431 176.32 237.973 176.32C238.523 176.32 238.971 176.129 239.317 175.746C239.671 175.354 239.849 174.85 239.849 174.234C239.849 173.618 239.671 173.114 239.317 172.722C238.971 172.33 238.523 172.134 237.973 172.134C237.431 172.134 236.983 172.33 236.629 172.722C236.283 173.114 236.111 173.618 236.111 174.234ZM241.963 174.234C241.963 175.326 241.585 176.245 240.829 176.992C240.073 177.739 239.121 178.112 237.973 178.112C236.834 178.112 235.887 177.739 235.131 176.992C234.375 176.245 233.997 175.326 233.997 174.234C233.997 173.142 234.375 172.223 235.131 171.476C235.887 170.72 236.834 170.342 237.973 170.342C239.121 170.342 240.073 170.72 240.829 171.476C241.585 172.223 241.963 173.142 241.963 174.234ZM250.639 173.94V178H248.525V173.884C248.525 173.287 248.431 172.848 248.245 172.568C248.067 172.288 247.773 172.148 247.363 172.148C246.961 172.148 246.602 172.302 246.285 172.61C245.977 172.909 245.823 173.352 245.823 173.94V178H243.723V170.468H245.823V171.322C246.401 170.669 247.064 170.342 247.811 170.342C248.287 170.342 248.716 170.482 249.099 170.762C249.491 171.042 249.785 171.383 249.981 171.784C250.27 171.327 250.657 170.972 251.143 170.72C251.637 170.468 252.132 170.342 252.627 170.342C253.513 170.342 254.227 170.608 254.769 171.14C255.31 171.663 255.581 172.423 255.581 173.422V178H253.467V173.884C253.467 172.727 253.042 172.148 252.193 172.148C251.773 172.148 251.409 172.302 251.101 172.61C250.793 172.909 250.639 173.352 250.639 173.94Z" fill="#252B42"/>
</g>
<path d="M123.281 212.304H125.793V216.272C124.683 217.509 123.147 218.128 121.185 218.128C119.542 218.128 118.161 217.584 117.041 216.496C115.931 215.408 115.377 214.037 115.377 212.384C115.377 210.72 115.942 209.333 117.073 208.224C118.214 207.115 119.585 206.56 121.185 206.56C122.795 206.56 124.193 207.088 125.377 208.144L124.081 210.016C123.579 209.579 123.115 209.28 122.689 209.12C122.273 208.949 121.819 208.864 121.329 208.864C120.379 208.864 119.579 209.189 118.929 209.84C118.278 210.48 117.953 211.328 117.953 212.384C117.953 213.44 118.262 214.288 118.881 214.928C119.51 215.557 120.257 215.872 121.121 215.872C121.985 215.872 122.705 215.707 123.281 215.376V212.304ZM135.333 216.752C134.362 217.669 133.221 218.128 131.909 218.128C130.607 218.128 129.53 217.728 128.677 216.928C127.823 216.117 127.397 215.035 127.397 213.68C127.397 212.325 127.829 211.248 128.693 210.448C129.567 209.648 130.597 209.248 131.781 209.248C132.965 209.248 133.967 209.605 134.789 210.32C135.621 211.035 136.037 212.016 136.037 213.264V214.544H129.765C129.839 215.013 130.085 215.397 130.501 215.696C130.917 215.995 131.386 216.144 131.909 216.144C132.751 216.144 133.445 215.861 133.989 215.296L135.333 216.752ZM133.605 212.832C133.551 212.32 133.359 211.925 133.029 211.648C132.698 211.371 132.293 211.232 131.813 211.232C131.343 211.232 130.911 211.376 130.517 211.664C130.122 211.952 129.893 212.341 129.829 212.832H133.605ZM140.638 211.12V214.976C140.638 215.307 140.723 215.568 140.894 215.76C141.064 215.941 141.267 216.032 141.502 216.032C141.95 216.032 142.328 215.829 142.638 215.424L143.534 217.104C142.787 217.787 141.998 218.128 141.166 218.128C140.344 218.128 139.646 217.856 139.07 217.312C138.504 216.768 138.222 216.027 138.222 215.088V211.12H137.214V209.392H138.222V206.816H140.638V209.392H142.718V211.12H140.638ZM153.079 208.752C152.663 208.752 152.332 208.853 152.087 209.056C151.852 209.248 151.735 209.509 151.735 209.84C151.735 210.16 151.879 210.416 152.167 210.608C152.466 210.8 153.143 211.029 154.199 211.296C155.266 211.552 156.092 211.941 156.679 212.464C157.266 212.987 157.559 213.749 157.559 214.752C157.559 215.755 157.18 216.571 156.423 217.2C155.676 217.819 154.69 218.128 153.463 218.128C151.692 218.128 150.098 217.472 148.679 216.16L150.167 214.336C151.372 215.392 152.487 215.92 153.511 215.92C153.97 215.92 154.327 215.824 154.583 215.632C154.85 215.429 154.983 215.163 154.983 214.832C154.983 214.491 154.844 214.224 154.567 214.032C154.29 213.829 153.74 213.627 152.919 213.424C151.618 213.115 150.663 212.715 150.055 212.224C149.458 211.723 149.159 210.944 149.159 209.888C149.159 208.821 149.538 208 150.295 207.424C151.063 206.848 152.018 206.56 153.159 206.56C153.906 206.56 154.652 206.688 155.399 206.944C156.146 207.2 156.796 207.563 157.351 208.032L156.087 209.856C155.116 209.12 154.114 208.752 153.079 208.752ZM164.985 214.032V209.392H167.401V218H164.985V216.864C164.388 217.707 163.614 218.128 162.665 218.128C161.726 218.128 160.937 217.835 160.297 217.248C159.657 216.651 159.337 215.771 159.337 214.608V209.392H161.753V214.08C161.753 215.403 162.238 216.064 163.209 216.064C163.689 216.064 164.105 215.893 164.457 215.552C164.809 215.2 164.985 214.693 164.985 214.032ZM174.775 209.248C175.778 209.248 176.669 209.669 177.447 210.512C178.237 211.344 178.631 212.395 178.631 213.664C178.631 214.933 178.237 215.995 177.447 216.848C176.669 217.701 175.751 218.128 174.695 218.128C173.65 218.128 172.807 217.707 172.167 216.864V221.104H169.767V209.392H172.167V210.352C172.903 209.616 173.773 209.248 174.775 209.248ZM172.135 213.712C172.135 214.405 172.327 214.976 172.711 215.424C173.106 215.861 173.581 216.08 174.135 216.08C174.69 216.08 175.175 215.861 175.591 215.424C176.007 214.976 176.215 214.405 176.215 213.712C176.215 213.019 176.013 212.437 175.607 211.968C175.202 211.499 174.717 211.264 174.151 211.264C173.586 211.264 173.106 211.499 172.711 211.968C172.327 212.427 172.135 213.008 172.135 213.712ZM185.531 209.248C186.534 209.248 187.425 209.669 188.203 210.512C188.993 211.344 189.387 212.395 189.387 213.664C189.387 214.933 188.993 215.995 188.203 216.848C187.425 217.701 186.507 218.128 185.451 218.128C184.406 218.128 183.563 217.707 182.923 216.864V221.104H180.523V209.392H182.923V210.352C183.659 209.616 184.529 209.248 185.531 209.248ZM182.891 213.712C182.891 214.405 183.083 214.976 183.467 215.424C183.862 215.861 184.337 216.08 184.891 216.08C185.446 216.08 185.931 215.861 186.347 215.424C186.763 214.976 186.971 214.405 186.971 213.712C186.971 213.019 186.769 212.437 186.363 211.968C185.958 211.499 185.473 211.264 184.907 211.264C184.342 211.264 183.862 211.499 183.467 211.968C183.083 212.427 182.891 213.008 182.891 213.712ZM193.2 213.696C193.2 214.4 193.397 214.976 193.792 215.424C194.197 215.861 194.709 216.08 195.328 216.08C195.957 216.08 196.469 215.861 196.864 215.424C197.269 214.976 197.472 214.4 197.472 213.696C197.472 212.992 197.269 212.416 196.864 211.968C196.469 211.52 195.957 211.296 195.328 211.296C194.709 211.296 194.197 211.52 193.792 211.968C193.397 212.416 193.2 212.992 193.2 213.696ZM199.888 213.696C199.888 214.944 199.456 215.995 198.592 216.848C197.728 217.701 196.64 218.128 195.328 218.128C194.026 218.128 192.944 217.701 192.08 216.848C191.216 215.995 190.784 214.944 190.784 213.696C190.784 212.448 191.216 211.397 192.08 210.544C192.944 209.68 194.026 209.248 195.328 209.248C196.64 209.248 197.728 209.68 198.592 210.544C199.456 211.397 199.888 212.448 199.888 213.696ZM206.298 211.504C205.584 211.504 205.05 211.76 204.698 212.272C204.346 212.773 204.17 213.44 204.17 214.272V218H201.77V209.392H204.17V210.528C204.48 210.176 204.864 209.877 205.322 209.632C205.792 209.387 206.266 209.259 206.746 209.248L206.762 211.504H206.298ZM211.312 211.12V214.976C211.312 215.307 211.398 215.568 211.569 215.76C211.739 215.941 211.942 216.032 212.177 216.032C212.625 216.032 213.003 215.829 213.313 215.424L214.209 217.104C213.462 217.787 212.673 218.128 211.841 218.128C211.019 218.128 210.321 217.856 209.745 217.312C209.179 216.768 208.897 216.027 208.897 215.088V211.12H207.889V209.392H208.897V206.816H211.312V209.392H213.393V211.12H211.312Z" fill="#252B42"/>
<rect x="86.5" y="239.5" width="156" height="43" rx="4.5" stroke="#23A6F0"/>
<path d="M110.57 257.908C110.206 257.908 109.916 257.997 109.702 258.174C109.496 258.342 109.394 258.571 109.394 258.86C109.394 259.14 109.52 259.364 109.772 259.532C110.033 259.7 110.626 259.901 111.55 260.134C112.483 260.358 113.206 260.699 113.72 261.156C114.233 261.613 114.49 262.281 114.49 263.158C114.49 264.035 114.158 264.749 113.496 265.3C112.842 265.841 111.979 266.112 110.906 266.112C109.356 266.112 107.961 265.538 106.72 264.39L108.022 262.794C109.076 263.718 110.052 264.18 110.948 264.18C111.349 264.18 111.662 264.096 111.886 263.928C112.119 263.751 112.236 263.517 112.236 263.228C112.236 262.929 112.114 262.696 111.872 262.528C111.629 262.351 111.148 262.173 110.43 261.996C109.291 261.725 108.456 261.375 107.924 260.946C107.401 260.507 107.14 259.826 107.14 258.902C107.14 257.969 107.471 257.25 108.134 256.746C108.806 256.242 109.641 255.99 110.64 255.99C111.293 255.99 111.946 256.102 112.6 256.326C113.253 256.55 113.822 256.867 114.308 257.278L113.202 258.874C112.352 258.23 111.475 257.908 110.57 257.908ZM121.1 262.528V258.468H123.214V266H121.1V265.006C120.577 265.743 119.9 266.112 119.07 266.112C118.248 266.112 117.558 265.855 116.998 265.342C116.438 264.819 116.158 264.049 116.158 263.032V258.468H118.272V262.57C118.272 263.727 118.696 264.306 119.546 264.306C119.966 264.306 120.33 264.157 120.638 263.858C120.946 263.55 121.1 263.107 121.1 262.528ZM129.737 258.342C130.651 258.342 131.449 258.701 132.131 259.42C132.812 260.129 133.153 261.044 133.153 262.164C133.153 263.284 132.803 264.222 132.103 264.978C131.403 265.734 130.605 266.112 129.709 266.112C128.822 266.112 128.085 265.743 127.497 265.006V266H125.397V255.612H127.497V259.308C128.075 258.664 128.822 258.342 129.737 258.342ZM127.469 262.248C127.469 262.855 127.637 263.354 127.973 263.746C128.318 264.129 128.733 264.32 129.219 264.32C129.704 264.32 130.129 264.129 130.493 263.746C130.857 263.354 131.039 262.855 131.039 262.248C131.039 261.641 130.861 261.133 130.507 260.722C130.152 260.311 129.727 260.106 129.233 260.106C128.738 260.106 128.318 260.311 127.973 260.722C127.637 261.123 127.469 261.632 127.469 262.248ZM141.837 261.94V266H139.723V261.884C139.723 261.287 139.63 260.848 139.443 260.568C139.266 260.288 138.972 260.148 138.561 260.148C138.16 260.148 137.8 260.302 137.483 260.61C137.175 260.909 137.021 261.352 137.021 261.94V266H134.921V258.468H137.021V259.322C137.6 258.669 138.262 258.342 139.009 258.342C139.485 258.342 139.914 258.482 140.297 258.762C140.689 259.042 140.983 259.383 141.179 259.784C141.468 259.327 141.856 258.972 142.341 258.72C142.836 258.468 143.33 258.342 143.825 258.342C144.712 258.342 145.426 258.608 145.967 259.14C146.508 259.663 146.779 260.423 146.779 261.422V266H144.665V261.884C144.665 260.727 144.24 260.148 143.391 260.148C142.971 260.148 142.607 260.302 142.299 260.61C141.991 260.909 141.837 261.352 141.837 261.94ZM150.989 266H148.889V258.468H150.989V266ZM149.057 257.516C148.823 257.273 148.707 256.979 148.707 256.634C148.707 256.289 148.823 255.999 149.057 255.766C149.299 255.523 149.593 255.402 149.939 255.402C150.284 255.402 150.573 255.523 150.807 255.766C151.049 255.999 151.171 256.289 151.171 256.634C151.171 256.979 151.049 257.273 150.807 257.516C150.573 257.749 150.284 257.866 149.939 257.866C149.593 257.866 149.299 257.749 149.057 257.516ZM155.682 259.98V263.354C155.682 263.643 155.757 263.872 155.906 264.04C156.056 264.199 156.233 264.278 156.438 264.278C156.83 264.278 157.162 264.101 157.432 263.746L158.216 265.216C157.563 265.813 156.872 266.112 156.144 266.112C155.426 266.112 154.814 265.874 154.31 265.398C153.816 264.922 153.568 264.273 153.568 263.452V259.98H152.686V258.468H153.568V256.214H155.682V258.468H157.502V259.98H155.682ZM171.582 259.462C171.582 261.03 170.961 262.043 169.72 262.5L172.198 266H169.51L167.34 262.878H165.828V266H163.644V256.214H167.354C168.875 256.214 169.958 256.471 170.602 256.984C171.255 257.497 171.582 258.323 171.582 259.462ZM167.424 260.988C168.171 260.988 168.679 260.867 168.95 260.624C169.221 260.381 169.356 259.999 169.356 259.476C169.356 258.944 169.216 258.58 168.936 258.384C168.656 258.188 168.166 258.09 167.466 258.09H165.828V260.988H167.424ZM180.33 264.908C179.48 265.711 178.482 266.112 177.334 266.112C176.195 266.112 175.252 265.762 174.506 265.062C173.759 264.353 173.386 263.405 173.386 262.22C173.386 261.035 173.764 260.092 174.52 259.392C175.285 258.692 176.186 258.342 177.222 258.342C178.258 258.342 179.135 258.655 179.854 259.28C180.582 259.905 180.946 260.764 180.946 261.856V262.976H175.458C175.523 263.387 175.738 263.723 176.102 263.984C176.466 264.245 176.876 264.376 177.334 264.376C178.071 264.376 178.678 264.129 179.154 263.634L180.33 264.908ZM178.818 261.478C178.771 261.03 178.603 260.685 178.314 260.442C178.024 260.199 177.67 260.078 177.25 260.078C176.839 260.078 176.461 260.204 176.116 260.456C175.77 260.708 175.57 261.049 175.514 261.478H178.818ZM185.838 266.112C184.877 266.112 184.037 265.753 183.318 265.034C182.599 264.306 182.24 263.377 182.24 262.248C182.24 261.109 182.59 260.176 183.29 259.448C183.99 258.711 184.769 258.342 185.628 258.342C186.487 258.342 187.238 258.664 187.882 259.308V258.468H189.996V268.716H187.882V265.398C187.285 265.874 186.603 266.112 185.838 266.112ZM184.354 262.248C184.354 262.855 184.536 263.354 184.9 263.746C185.264 264.129 185.689 264.32 186.174 264.32C186.659 264.32 187.07 264.129 187.406 263.746C187.742 263.354 187.91 262.855 187.91 262.248C187.91 261.632 187.742 261.123 187.406 260.722C187.07 260.311 186.655 260.106 186.16 260.106C185.665 260.106 185.241 260.311 184.886 260.722C184.531 261.123 184.354 261.632 184.354 262.248ZM197.042 262.528V258.468H199.156V266H197.042V265.006C196.52 265.743 195.843 266.112 195.012 266.112C194.191 266.112 193.5 265.855 192.94 265.342C192.38 264.819 192.1 264.049 192.1 263.032V258.468H194.214V262.57C194.214 263.727 194.639 264.306 195.488 264.306C195.908 264.306 196.272 264.157 196.58 263.858C196.888 263.55 197.042 263.107 197.042 262.528ZM207.863 264.908C207.014 265.711 206.015 266.112 204.867 266.112C203.729 266.112 202.786 265.762 202.039 265.062C201.293 264.353 200.919 263.405 200.919 262.22C200.919 261.035 201.297 260.092 202.053 259.392C202.819 258.692 203.719 258.342 204.755 258.342C205.791 258.342 206.669 258.655 207.387 259.28C208.115 259.905 208.479 260.764 208.479 261.856V262.976H202.991C203.057 263.387 203.271 263.723 203.635 263.984C203.999 264.245 204.41 264.376 204.867 264.376C205.605 264.376 206.211 264.129 206.687 263.634L207.863 264.908ZM206.351 261.478C206.305 261.03 206.137 260.685 205.847 260.442C205.558 260.199 205.203 260.078 204.783 260.078C204.373 260.078 203.995 260.204 203.649 260.456C203.304 260.708 203.103 261.049 203.047 261.478H206.351ZM215.864 263.662C215.864 264.399 215.588 264.992 215.038 265.44C214.496 265.888 213.806 266.112 212.966 266.112C212.406 266.112 211.822 266.014 211.216 265.818C210.609 265.613 210.063 265.314 209.578 264.922L210.502 263.606C211.286 264.213 212.121 264.516 213.008 264.516C213.278 264.516 213.493 264.465 213.652 264.362C213.81 264.25 213.89 264.105 213.89 263.928C213.89 263.751 213.778 263.587 213.554 263.438C213.339 263.289 213.022 263.149 212.602 263.018C212.191 262.887 211.874 262.775 211.65 262.682C211.435 262.589 211.188 262.453 210.908 262.276C210.338 261.921 210.054 261.399 210.054 260.708C210.054 260.008 210.334 259.439 210.894 259C211.454 258.561 212.177 258.342 213.064 258.342C213.95 258.342 214.837 258.641 215.724 259.238L214.94 260.638C214.286 260.19 213.633 259.966 212.98 259.966C212.336 259.966 212.014 260.143 212.014 260.498C212.014 260.694 212.116 260.848 212.322 260.96C212.527 261.072 212.868 261.203 213.344 261.352C213.82 261.501 214.156 261.618 214.352 261.702C214.557 261.777 214.8 261.898 215.08 262.066C215.602 262.383 215.864 262.915 215.864 263.662ZM220.118 259.98V263.354C220.118 263.643 220.193 263.872 220.342 264.04C220.492 264.199 220.669 264.278 220.874 264.278C221.266 264.278 221.598 264.101 221.868 263.746L222.652 265.216C221.999 265.813 221.308 266.112 220.58 266.112C219.862 266.112 219.25 265.874 218.746 265.398C218.252 264.922 218.004 264.273 218.004 263.452V259.98H217.122V258.468H218.004V256.214H220.118V258.468H221.938V259.98H220.118Z" fill="#23A6F0"/>
<defs>
<clipPath id="clip0_232_892">
<rect width="72" height="72" fill="white" transform="translate(128.5 50)"/>
</clipPath>
<clipPath id="clip1_232_892">
<rect width="216" height="48" fill="white" transform="translate(56.5 137)"/>
</clipPath>
</defs>
</svg>
